<?xml version="1.0" encoding="utf-8"?>
<!-- Generator: Adobe Illustrator 23.0.5, SVG Export Plug-In . SVG Version: 6.00 Build 0)  -->
<svg version="1.1" id="Layer_1" xmlns="http://www.w3.org/2000/svg" xmlns:xlink="http://www.w3.org/1999/xlink" x="0px" y="0px"
	 viewBox="0 0 1158.3 612" style="enable-background:new 0 0 1158.3 612;" xml:space="preserve">
<style type="text/css">
	.st0{fill:#F3EDD7;enable-background:new    ;}
	.st1{fill:none;stroke:#ED0F0F;stroke-miterlimit:10;}
	.st2{fill:#5B2500;enable-background:new    ;}
	.st3{fill:#A2B948;stroke:#331B09;stroke-miterlimit:10;enable-background:new    ;}
	.st4{fill:#FA6912;enable-background:new    ;}
	.st5{fill:#F5691F;enable-background:new    ;}
	.st6{fill:#F9681A;enable-background:new    ;}
	.st7{fill:#FA6817;enable-background:new    ;}
	.st8{fill:#FE670F;enable-background:new    ;}
	.st9{fill:#FB6718;enable-background:new    ;}
	.st10{fill:#F9661A;enable-background:new    ;}
	.st11{fill:#FF631C;enable-background:new    ;}
	.st12{fill:#F76915;enable-background:new    ;}
	.st13{fill:#F96819;enable-background:new    ;}
	.st14{fill:#F36B17;enable-background:new    ;}
	.st15{fill:#FA6917;enable-background:new    ;}
	.st16{fill:#FB661E;enable-background:new    ;}
	.st17{fill:#F86916;enable-background:new    ;}
	.st18{fill:#F66A17;enable-background:new    ;}
	.st19{fill:#F76720;enable-background:new    ;}
	.st20{fill:#FC6910;enable-background:new    ;}
	.st21{fill:#F6691B;enable-background:new    ;}
	.st22{fill:#FB661B;enable-background:new    ;}
	.st23{fill:#FB661B;}
	.st24{fill:#FB6719;enable-background:new    ;}
	.st25{fill:#FF660B;enable-background:new    ;}
	.st26{fill:#F8681B;enable-background:new    ;}
	.st27{fill:#FA671A;enable-background:new    ;}
	.st28{fill:#FD651D;enable-background:new    ;}
	.st29{fill:#F7691B;enable-background:new    ;}
	.st30{fill:#FA6722;enable-background:new    ;}
	.st31{fill:#F86A1E;enable-background:new    ;}
	.st32{fill:#E96D25;enable-background:new    ;}
	.st33{fill:none;}
	.st34{fill:#F9F9F9;}
	.st35{fill:none;stroke:url(#SVGID_1_);stroke-width:7;stroke-miterlimit:10;}
	.st36{fill:none;stroke:#000000;stroke-miterlimit:10;}
	.st37{fill:none;stroke:#000000;stroke-width:18;stroke-miterlimit:10;}
	.st38{fill:none;stroke:#070707;stroke-miterlimit:10;}
	.st39{fill:none;stroke:#000000;stroke-width:3;stroke-miterlimit:10;}
	.st40{fill:#020202;}
	.st41{fill:#070707;}
	.st42{fill:#151515;stroke:#000000;stroke-width:3;stroke-miterlimit:10;}
	.st43{fill:#456A42;}
	.st44{fill:url(#SVGID_2_);}
	.st45{fill:#666865;}
	.st46{fill:url(#SVGID_3_);}
	.st47{fill:#EC1E24;}
	.st48{fill:#CBC3C3;}
	.st49{fill:#3A3737;}
	.st50{fill:url(#SVGID_4_);}
	.st51{fill:url(#SVGID_5_);}
	.st52{fill:url(#SVGID_6_);stroke:#000000;stroke-miterlimit:10;}
	.st53{fill:url(#SVGID_7_);stroke:#000000;stroke-width:2;stroke-miterlimit:10;}
	.st54{fill:url(#SVGID_8_);stroke:#000000;stroke-width:2;stroke-miterlimit:10;}
</style>
<image style="overflow:visible;enable-background:new    ;" width="1280" height="1280" xlink:href="B49AEF3B.jpg"  transform="matrix(0.4149 0 0 0.4149 -1118.438 -153.9185)">
</image>
<g>
	<rect x="-547.8" y="-150.1" class="st0" width="531" height="531"/>
	<path class="st1" d="M-930.1-150.2h12.3C-917.8-150.2-924.4-141.8-930.1-150.2z"/>
	<path class="st2" d="M-467.7-150.2c0,0-15.6,3.6-16.2,13c0,0-0.8,9.8,9.6,8.4c0,0,2.3-0.8,2.7-2.3c0,0-5.5,0.6-2.9-6.1
		c0,0,7.2-3.7,8,4.1c0,0,0.8,5.5-7,6.8c0,0-9.4,1.6-12.1-8c0,0,0.4-6.2,1.2-7.8c0,0-15,8-16,20.9c0,0-0.4,8.6,8.4,10.9
		c0,0,9,1.8,9.6-5.7c0,0-0.4-8.6-7.4-6.4c0,0-4.3,2.3-4.1,4.5c0,0-2.5-7,6.8-8.4c0,0,10.7-0.8,10.7,11.5c0,0,1,10.7-4.7,13.5
		c0,0-3.1,2.9-10.7,4.9c0,0-12.3,4.7-14.4,7c0,0-9.4,3.9-14.6,20.3c0,0-2.3,11.3,1,18.9c0,0,3.1,11.9,19.5,24.8
		c0,0-12.7-6.4-31.4,1.4c0,0-12.2,7.6-16,15.6v-141.8H-467.7z"/>
	<path class="st2" d="M-460.5-150.2c0,0-14.6,2.4-18,7.5c0,0-6.5,6.7,1,9.9c0,0-4.3-6,6.7-8.7c0,0,4.8,1.1,5.1,3.1
		c0,0,3.2,8.6,19.7,14.2c0,0-11.6-7.7-7.7-16.5c0,0,4.4-7.8,11.7-2.1c0,0,3.1,1.7,0.6,6.6c0,0-1.9,2.6-4.6,2.1c0,0,3.4,5.4,10.5,0.5
		c0,0,2.6-0.5,3.2-5.5c0,0-1.1-5.1,4.8-7.4c0,0,12.1-5.4,28.1,1.4c0,0,10.8,4.2,20.5,12l-2-4.1c0,0-4.5-6.5-3.9-13H-460.5z"/>
	<path class="st2" d="M-380.2-150.2c0,0-0.6,11.2,10.9,19.1c0,0,9.9,8.9,24.3,9.5l13.2-0.6c0,0-12.6-4.3-19.5-15l-3.7-4.4
		c0,0-10.9,2.2-13.2-8.6h-6.8c0,0,0.8,10.6,4.5,13.7c0,0-6.6-4.1-7.1-13.7H-380.2z"/>
	<path class="st2" d="M-361.5-150.2h12.3C-349.2-150.2-355.8-141.8-361.5-150.2z"/>
	<path class="st2" d="M-344.8-150.2c0,0-2.5,8,6.3,16.8c0,0,6.5,8.8,21.1,4.8c0,0,16.1-4.1,23.7-21.5h-3.4c0,0-8.6,14.3-20.5,16.6
		c0,0-11.1,4.1-18.5-4.6c0,0-5.9-4.4-5.1-12L-344.8-150.2L-344.8-150.2z"/>
	<path class="st2" d="M-335.1-150.2c0,0-0.3,8,8.3,7.5c8.6-0.5,8.6-7.5,8.6-7.5H-335.1z"/>
	<path class="st2" d="M-316.5-150.2c0,0-2,7.4,2.8,8.8c0,0,6.1,4,8.1-4.4c0,0-3.9-7-6.9-0.6c0,0-0.2,3.3,3.2,2.4c0,0,1.9,2.1-2,2
		c0,0-5.3,0.3-3.6-8.1H-316.5z"/>
	<path class="st2" d="M-287.5-150.2c0,0-13.5,27.1-40.6,30c0,0-8,1.8-16.9,1.2c0,0-10.3-1.8-12.3,7.8c0,0-2.2,8.2,12.3,9.1
		c0,0,18.2,2.9,33.9-10.6c0,0,14.6-12.8,17.5-20.1c0,0,4.9-5.5,7.9-17.4L-287.5-150.2L-287.5-150.2z"/>
	<path class="st2" d="M-281.2-150.2c0,0-11.2,12.6-9.9,30.9c0,0-14.3,1.2-22,11.5c0,0-9.9,11.2-12.5,12.8c0,0-16.3,15.5-36.9,16.5
		c0,0-20.5-0.9-22.1,8.6c0,0-1.9,9.2,12.9,8.8c0,0,14.7-0.4,29.9-16.6c0,0,16.3-14.3,16.3-14.9l5.2-4.9c0,0-7.1,13.8-6.3,23.2
		c0,0-0.3,10.6,0.6,11.4l0.5,1.2c0,0,4-11.7,6.1-10.9c0,0,1.7-3.8,8.2-5.7c0,0,11.4-2.6,16-9.8c0,0,4-5.5,3.7-9.2
		c0,0,2-14.9,13.9-14.8c0,0,10.6,0.9,9.5,8.2c0,0,0.8,5.2-4.8,4.8c0,0-4.5-2,0.6-5.7c0,0-8.5,0-4.5,7.5c0,0,3.9,6.6,10.5-0.3
		c0,0,10-16.5-15.6-21.2c0,0,0.4-15.8,5-22.5c0,0-3.9,12.5,6.8,17.5c0,0,7.7,4.7,13.9-3.7c0,0,5.2-10-4.8-12.1c0,0-8.5-0.8-6.9,7.5
		c0,0,0.9,4.3,5.1,2.6c0,0,4.6-4.2,4.1-0.8c0,0,1.1,4.8-4.9,5.1c0,0-11.9,0.1-10.8-13.6c0,0,0.8-7,6.3-11.3L-281.2-150.2
		L-281.2-150.2z"/>
	<path class="st2" d="M-225.2-150.2c0,0,11.2,8.5,6.6,22.6c0,0-9.9,17.4-18.8,4.5c0,0-3.4-7.1,4-10.3c0,0,9.5-1.1,4.5-5.5
		c0,0-5.2-7.4-18.6,1.2c0,0-9.1,4.8-5.2,19.4c0,0,2.9,12.8,17.9,16.6c0,0-6,9.7,1.9,15.4c0,0,6.1,6,13.4-1.5c0,0,5.4-7.1-3.9-8.8
		c0,0-6.2,2-1.9,6c0,0,0.1,1.4,2.1,1.1c0,0-0.9,4.3-7.9,2.6c0,0-8.8-4.2-1.5-14.8c0,0,21.1,2.5,27.2-18.7c0,0,5.2-15.5-5.5-29.7
		C-210.9-150.2-225.2-150.2-225.2-150.2z"/>
	<path class="st2" d="M-200.2-150.2c0,0,8.8,9.2,9.9,11.7c0,0,12.5,18.4,22,21.4c0,0,13.5,8,28.9-2.1c0,0,4.6-3.4,5.2-6.5
		c0,0,19.2,1.2,23.7,16c0,0,5.7,14-4,24.2c0,0-11.7,12.8-25.7,2.9c0,0-10.5-9.1-4.6-20.6c0,0,8.6-12.3,18.5-4.3c0,0,6.1,6.2-0.5,9.8
		c0,0-1.7,1.2-1.1-3.2c0,0-4.5-7.4-9.5,0.6c0,0-3.5,7.7,6.3,8.8c0,0,6.3,1.2,8.9-7.1c0,0,3.9-8.5-7.1-12.5c0,0-11.2-5.1-18,8.9
		c0,0-5.7,10.9,6,21.1c0,0,4.5,2.8,6.1,3.5c0,0-10.5,0.8-11.5,10.5c0,0-0.6,8.6,7.1,10.2c0,0,11.9,0.3,7.1-9.2c0,0-1.9-4.2-6.3-1.4
		c0,0-4.8,4,0.8,6.2c0,0,4.3-1.2,2.6,1.5c0,0-3.6,3.1-7.4-1.4c0,0-4.9-5.9,2.6-12.5c0,0,5.7-3.7,9.2-3.2c0,0,8.1,0.8,12.6-2.2
		c0,0,4.5-3.7,2.9,0.5c0,0-2,11.1,0.9,12.2c0,0,2.8,6.6,10.8,1.1c0,0,4.1-4.9-1.7-6.6c0,0-4.2,0.6-1.9,4c0,0,3.1,1.4,0.9,2.6
		c0,0-7.7,3.1-7.7-7.4c0,0,2.3-10,3.2-10c0,0,8.3-10.2,4.1-25.1c0,0-2-15.1-19.9-20.1c0,0-5.1-1.2-6.8-0.9c0,0,4.3-9.1-1.1-16.5
		c0,0-3.1-4.8-4-4.8h-24.3c0,0-3.1,5.4-0.8,8.8c0,0,5.6-5.2,12.2,2.5c0,0,6.9,6.3-5.7,13.8c0,0-6.9,4-19.4-7.5
		c0,0-12.6-12-17.9-17.5c0,0,8.5,2,11.7,0L-200.2-150.2L-200.2-150.2z"/>
	<path class="st2" d="M-117.4-150.2c0,0,6.8,6.4,6.6,7.5c0,0,1.7,11.9-6.6,13.4c0,0-6.8,1.5-8.3-5.1c0,0-1.4-3.8,2.1-1.4
		c0,0,7.1-0.8,2.5-6.5c0,0-5.1-4.2-8,2.6c0,0-1.9,6.1,4.3,10.5c0,0,9.1,6.1,14.1-4.2c0,0,2-0.5,2-6.5c0,0,4.6,7.7,4.5,16.2
		c0,0-1.2,12.6,6.1,11.4c0,0,11.4-0.9,4.5-15.1c0,0-3.5-9.5-8.7-14.3c0,0,9.8,5.5,20.3,3.5c0,0,12.9-1.2,15.7-12.1h-5.1
		c0,0-3.7,8.5-17.2,8.1c0,0-10.1,0.6-20.6-8.1L-117.4-150.2L-117.4-150.2z"/>
	<path class="st2" d="M-94.5-137.3c0,0,3.1,5.8,12,12.8c0,0,5.5,7.7,15.5,13.5c0,0,8.5,7.8,26.9,4.8c0,0,8.9-2.6,9.5-7.8
		c0,0,2.6-6-2.2-8.3c0,0-6.9-1.7-8.5,4l0.8,3.5h1.2c0,0-1.8-5.1,0.8-5.8c0,0,5.4-3.5,6.6,1.5c0,0,2.8,4.9-2.3,8.8
		c0,0-19.1,17.7-46.8-13.5c0,0,15.2,11.7,31.7,6.6c0,0,14.3-3.5,19.3-15.4c0,0,5.3-10.8-2.3-16l-1.2-1.5h-6.6c0,0-4.9,2.8-2,8.1
		c0,0,2.5,3.1,6-0.1c0,0-5.5,0-3.2-4.3c0,0,4.3-3.1,6.8,2.6c0,0,3.5,7.1-5.8,11.2c0,0-5.5,1.9-13.7-2.9c0,0-7.5-7.2-20.3-1.4
		c0,0-5.9,3.7-14.8,2.8C-86.9-134.2-93.2-135.6-94.5-137.3z"/>
	<path class="st2" d="M-89.8-124.3c0,0,5.7,4.8,3.9,14.6c0,0-3.4,9.7,0.4,12.9c0,0,8.9,10.6,6.1,14.8c0,0-0.9,5.5-7.5,4.9
		c0,0-5.2-2.6-1.4-5.7c0,0,3.6,0.3,2.1,2.8c0,0,3.8-5.5-3.6-5.2c0,0-3.5,0.9-2.6,4.3c0,0-0.1,8.5,9.9,6c0,0,9.1-0.6,13.2-15.1
		s-7.5-25.1-7.5-25.1S-84.8-123.9-89.8-124.3z"/>
	<path class="st2" d="M-428-76c0,0-9.7-0.9-9.1,8c0,0-1.1,12.3,13.2,11.1c0,0,10-1.4,11.1-13.4c0,0,0.8-7.5-4.1-9.5
		c0,0,6.9-4,2.8-12.2c0,0-2.5-10.3-21.4-11.4c0,0-19.5-1.2-37.1,4.9l-9.4,2.8c0,0-12,4-12.3,4.8c0,0,15.9-6.5,36.5-4.3
		c0,0,22,1.1,29.7,11.2c0,0,7.7,7.4,4.3,14.5c0,0-2.8,4.7-7.5,0.8C-431.4-68.8-435.1-71.6-428-76z"/>
	<path class="st2" d="M-488.3-84.6c0,0-5.9,5.1,1.1,7.7c0,0,5.5,1.2,6.8-5.4c0,0,1.1-6.6-8.8-9.2c0,0-11.1-1.2-18.6,8
		c0,0-11.2,8.8-7.1,28.5c0,0,1.4,13.5,12.8,23.4c0,0-3.2-9.2-0.1-13.9l4.2-7.4c0,0,7.3-10.5,0-20.5c0,0-3.7-12.2,6.8-14.6
		c0,0,7.5-1,7.2,4.9c0,0,0.9,3.2-2.8,2.9C-486.9-80.2-490-79.7-488.3-84.6z"/>
	<path class="st2" d="M-481.8-91.6c0,0,16.6-4.6,29.7,3.4c0,0,17.1,7,14.5,26.5c0,0,0.3,8.9-8,11.3c0,0-8.6,2-7.8-6.5
		c0,0,1.5-5.9,6-1.6l0.5,2.3c0,0-1.5-3.8-4.3-0.7c0,0-0.1,4.7,4.9,3.8c0,0,6.6-1.4,3.7-9.4c0,0-1-6.3-10.8-6.6
		c0,0-10.7,0.1-14.9-11.8C-468.5-80.9-470.5-88.6-481.8-91.6z"/>
	<path class="st2" d="M-381.5-89.3c0,0-8.8-3.7-8.9-4.9c0,0-7.5-8-13.2-4.5c0,0-9.1,5.4,2.5,14.2c0,0,4.5,5.6,28.9,4.3
		c0,0,13.5-3.5,14.8-5.5c0,0-13.7,0.6-15.9-0.9C-373.4-86.6-380.5-88.8-381.5-89.3z"/>
	<path class="st2" d="M-364.5-95.7c0,0-8.8-3.1-12.8-7.8c0,0-6.9-10.2-12.3-6.1c0,0-6.1,6.9,1.2,11.7c0,0,2.9,4.5,26.6,8.8
		c0,0,17.6,1.8,31.4-6.5c0,0,13.7-8,14.8-10.1c0,0-20.1,11.8-27.4,10.5C-342.9-95.1-354.6-93.3-364.5-95.7z"/>
	<path class="st2" d="M-353.7-99.5c0,0-7.8,0.4-9.5-10.2c0,0,0.3-4.5-9.5-7.4c0,0-7.5-1.8-3.2-8.9c0,0,3.5-3.6,5.1,0.9
		c0,0-0.5,2.5-2.6,0c0,0-0.8,3.4,2.9,2c0,0,5.7-2.9-2.3-6.3c0,0-8-0.5-8.3,11.1c0,0-1.4,8.1,10.3,16.6
		C-370.9-101.8-360.9-96.9-353.7-99.5z"/>
	<path class="st2" d="M-484.9-8.3c0,0-12-22.9-42.8-12.9c0,0-17.2,7.1-19.8,23.7c0,0-4.1,15.5,15.5,30.5c0,0,14.6,12.8,17.1,17.4
		c0,0-12.2-21.5-9.9-31.4c0,0,2.2-17.7,22-16.1c0,0,17.1,2.1,13.4,17.2c0,0-1.7,9.4-5.7,10.6c0,0,6.3-1.7,12.8-15.7
		C-482.3,14.9-478.2-0.5-484.9-8.3z"/>
	<path class="st2" d="M-547.4,18v26.9c0,0,12.6-7.5,23.6-1.1l-9.8-8.5C-533.7,35.4-545.4,24.4-547.4,18z"/>
	<path class="st2" d="M-496.8,11.7c0,0-8.7-9.4-17.7-0.9c0,0-3.7,1.5-6,11.7c0,0-0.3,11.2,5.2,18.8c0,0,5.4,12.1,3.7,18.3
		c0,0-1.8,4.1-4.5-4.9c0,0-2.9-9.1-15.2-11.4c0,0-13.2-0.6-16.2,8.8v12c0,0,5.3,10.8,13.1,7.7c0,0,7.8-1.7,7.7-8.9
		c0,0-0.3-5.9-4.5-0.9c-4.2,4.9-7.8-2.5-7.8-2.5s0.3-7.9,9.5-6.6c0,0,10.5,1.1,10,15.5c0,0,0.8,10.9-12.8,18c0,0-7.2,3.2-15.3,0v6
		c0,0,11.1,3.9,22.4-3.9c0,0,8.5-4.1,13.7-9.7c0,0,11.2-10.3,8.5-19.1c0,0-3.9-5.4-4.5,4.9c0,0-1.9,11.4-9.7,17.1
		c0,0,7.7-12.8,7.5-20.8c0,0,7.5-3.4,6.9-6.6c0,0,0.8-4.6,3.9-4c3.1,0.6,2,3.2,2,3.2s-4-2.1-2.3,0.6h1.5c0,0,5.5-1.9-1.9-5.2
		c0,0-6-1.2-8.9,3.2l-0.9,1.9c0,0-1.7-10,2.8-13.2c0,0,5.7-4.6,10.9-1.9c0,0,3.7,3.2,1.5,6c0,0-1.5,2.3-4,1.1c0,0,4.1-1.2,0.5-4
		c0,0-3.4-0.1-2.6,2.9c0,0,1.9,5.7,7.4,0c0,0,3.2-8.8-7.9-8.1c0,0-5.2,1.7-6.1,2.6c0,0-2-7.5,1.7-8.6c0,0,2.8,0.3,2.5,1.5
		c0,0,0.7,1.8-1.5,0.6c0,0-0.3,4.3,2.9-0.1c0,0,0.5-4.8-7.7-2.1c0,0-5.2,2.6-4.2,6.1c0,0-4.9-10.5,0.2-18.1c0,0,9.4-3.7,8.9,3.2
		c0,0,1.2,4.6-2.5,5.4c0,0,3.4,4.9,10-0.1C-496.5,27.1-490.5,19.7-496.8,11.7z"/>
	<path class="st3" d="M-467.4-35.4c0,0,16.6-3.9,21.4,18.9l3.1,8.8c0,0-5.9-7.1-23.5-16.1c0,0-16.6-6.2-18.2-19
		c0,0,0.6-14.6,13.5-8.6c0,0,8.3,4.6,1.9,9.7c0,0-5.7,3.3-5.1-3.7c0,0-4,0.8-2.1,6.1C-476.5-39.3-473.7-34.3-467.4-35.4z"/>
	<path class="st2" d="M-459.6-61.7c0,0,8.4,7.2,0,14.3c0,0-9.4,4.1-2.4,6.6c0,0,7.8-0.9,8.5-9.3c0,0,2-10.4-9.1-16.7
		c0,0-7.2-5.7-19.2,0l0.8-4.7c0,0-12.3,4.4-11.3,11.3l-0.8,5.9c0,0-2.7,12.5,0.8,16.9c0,0-4.7,1.3-5.8-6.1c0,0-4.8,5.2,0.9,14.8
		c0,0,5.3,10.8,16.8,11.2c0,0,8.4,0.3,2.4,3.1c0,0-10,2.9-3.9,6.1c0,0,6.1,4.3,21.1,4.5c0,0,18.9-2,26.5,10.3c0,0,13.1,14.6,10,32.8
		c0,0,0,16.3-11.9,21.4c0,0,8.8-11.1,8.8-21.2c0,0,1.9-17.3-9.4-26.1c0,0-12-11.1-28.1-3.6c0,0-13.1,6.6-9.4,22.1
		c0,0,6,17.4,22.9,7.1c0,0,10.6-11.9-2.6-18.1c0,0-5.9-1.9-7.9,1.5c0,0-3.6,10.4-7.3,3.1c0,0-2-10.9,13.1-14c0,0,14.8-3.2,21.4,9.5
		c0,0,11.9,15.9,0.6,32c0,0-6.2,8.6-8.8,9.7c0,0-3.4,2.3-0.9,4.9c0,0,1.1,3.5,8.3-3.4c0,0,13.5-7.1,14-26.6c0,0,0.5-18.3-8.3-28.8
		c0,0-3.9-11.2,4.8-15.1c0,0,6.8-1.2,7.1,3.1c0,0,1.4,3.7-0.9,3.2c0,0-1.2-7.4-6.5-1.5c0,0,0.3,6.8,4.6,5.8c0,0,8,0.1,4.3-9.1
		c0,0-2.3-5.4-10.9-2.9c0,0-5.2,1.4-5.1,10.3c0,0-4.2-9.1-5.5-18.9c0,0-3.5-18.3,6.1-26.5c0,0,10.3-7.5,9.9,1.7c0,0-0.1,5.7-6,0
		c0,0,0.9,7.7,7.2,5.5c0,0,12.8-3.7,4.5-14.6c0,0-6.8-7.3-14.8-1.6l-2.5,2.9c0,0-4.1-4.3-9.4,0c0,0-8.5,2.8-3.7,25
		c0,0,6.8,20.3,10,22.2l2.6,4.6c0,0-16.2-17.7-30.5-21.1c0,0-24.1-9.2-27.1-20.6c-2.9-11.4,0.5-23.5,17.4-28.6
		C-474.2-67.3-465.8-69.6-459.6-61.7z"/>
	<path class="st3" d="M-475.2-56.9c0,0-16.5-0.4-11.2,17.4c0,0,4.1,11.1,18.9,18c0,0-20.3-8.2-22-20c0,0-4-20.1,13.5-22.3
		c0,0,11.2-1.9,10.6,9.2c0,0-0.2,4-1.9,4.4C-467.2-50.1-468.6-55.7-475.2-56.9z"/>
	<path class="st2" d="M-430-23.8c0,0,7.5-7.2,1.5-10.7c0,0-5.1-2.3-7.7,7.9c-2.6,10.2,2.3,19.9,2.3,19.9S-433.4-21.2-430-23.8z"/>
	<path class="st3" d="M-456.8-1.5c0,0-18.2-3.9-20.9,4.3c0,0-1.3,10.2,9.6,4.5c0,0,1.7-3.2,18-2.6c0,0,5.5,0.5,5.5,1.2
		C-444.5,6.6-446.9,1.9-456.8-1.5z"/>
	<path class="st2" d="M-396.2-41.6c0,0-9.1-0.8-7.7-8.6c0,0,2.1-5.8,8.5,1.8c0,0,7,5.6,13.1,5.7c0,0,1.5,1.4,5.2,1.1
		C-377.1-41.6-387.1-37.9-396.2-41.6z"/>
	<path class="st2" d="M-386.2-58.9c0,0,2.3-9.5-12.1-10.5c0,0-9.4,0.4-14.4,9.2c0,0-5,9.6,2.4,17.6c0,0,3.9,6.8,14.3,8.6l5.5,0.6
		c0,0-5.5,4.9-7.6,10.3c0,0-5.6,11.7-15.4,9.1c0,0-7.9-1.2-7.9-10.5c0,0,3.4-6.8,6.8-1.5c0,0,2,4-3.1,4c0,0,4.6,2.5,6.5-3.1
		c1.9-5.5-4.8-6.6-4.8-6.6s-4.6-0.9-8.1,4.1c0,0-4.9,8.8,4.6,16.6c0,0,4.9,6.5,17.5,7.2c0,0,17.5,1.2,27.2-8.8
		c0,0,13.9-10.9,17.3-28.1c0,0,2.4-7.7,1.2-10.8c0,0-4,10.7-12.3,11.5c0,0-11.2,4.1-26.5,3.4c0,0-13.1-2.3-16.1-13.6
		c0,0-2.8-13.5,9.1-13.7c0,0,11.5-0.6,4.5,2.2c0,0-5.1,6.3,2.8,8.8C-394.9-52.8-387.6-49.1-386.2-58.9z"/>
	<path class="st2" d="M-366.3-46.1c0,0-7.4,7.1-14.8,1c0,0-5.7-6.3,5.7-9.7c0,0,10.1-0.1,20.6-8c0,0,8.1-6,8.6-7.9
		c0,0-3.3,11.4-7.6,14C-353.7-56.6-357.7-49.5-366.3-46.1z"/>
	<path class="st3" d="M-344.5-63.8c0,0-13.5,16.9-12.3,37.6c0,0-2.1,26.5,18.5,45.7c0,0,7.7,7.9,13.5,0c0,0,5.5-4.8-4.1-9.7
		c0,0-14.3-5.1-20.3-21.5c0,0-6-20.6-2.5-30.9C-351.7-42.6-347.4-58.4-344.5-63.8z"/>
	<path class="st2" d="M-354.8,10.1c0,0-5.9-10.5-20.6-7.7c0,0-8.9,4.9-15.1,1.5c0,0-3.9-2.5-4.9-3.9c0,0,14-1.4,24.9-11.7
		c0,0,10.6-10.4,10.6-15.9c0,0-1.6,18.8,6.1,28.5c0,0,8.5,14.1,7.5,18.9s-2.3,4-2.3,4s1.2,3.7-3.7-9.2
		C-352.2,14.7-353.9,11.4-354.8,10.1z"/>
	<path class="st2" d="M-344-54.5c0,0-9.5,31.7,2.9,46.1c0,0,9.9,20.6,30.3,25.7c0,0,10.3,3.1,2-4.3c0,0-13.5-15.2-15.5-15.2
		c0,0-10.8-10.5-14.3-22.9c0,0-5.1-20.8-1.4-31.9c0,0,3.6-14.6,6.9-17.9c0,0,3.1-6.4,6.6-9.3c0,0-10.9,12-12.4,17.9
		C-338.9-66.2-343.3-57.3-344-54.5z"/>
	<path class="st2" d="M-257.8-91.9c0,0-10.9-2.5-25.9,9.7l-5.9,4.9l-1.7,1.1c0,0-2-1.6,12-12.8c0,0,13.1-10,28-5.7
		c0,0,18.6,4,15.4,19.1c0,0-2.1,12.5-14.9,10.2c0,0-12.1-3-8.3-14.6c0,0,2.9-5.4,6.1-6c0,0-3.9,5.5,0.6,8.5c0,0,6.7,2.5,6.1-6.5
		C-246.2-84.1-246.3-90.8-257.8-91.9z"/>
	<path class="st2" d="M-154-62.8c0,0-2.9,22.3-14,31.7c0,0-4.8,6-10.3,7.5c0,0-8.3,2.5-6.1,8.9c0,0,3.1,4.5,9.7-1.9
		c0,0,11.7-8,15.2-18.8c0,0,4.9-10,4.9-13.9c0,0,1.4,8.6,4.3,13.7c0,0,4.1,12.8,19.2,17.1c0,0,21.1,8,32.8-9.2c0,0,8.5-13.3-2.6-26
		c0,0-12.5-10.9-21.7-1.9c0,0-9.9,8.9-0.1,19.9c0,0,6,6.6,12.6,0.9c0,0,5.9-5.7-1.7-10.6c0,0-7.1-2.6-4.6,6c0,0,2.3,2.3,4.5,1.3
		c0,0,2.3-1,0.8,1.2c0,0-1.7,4-8.6,1.1c0,0-10.4-5.3-1.7-18.5c0,0,7.1-6.6,17.4,1.4c0,0,8.6,4.3,6.5,17.9c0,0-1.7,12.3-13.7,14.9
		c0,0-16.3,4.9-25.9-3.5c0,0-11.2-7.1-11.7-14.4c0,0-4-5.3-4-14.5c0,0,2.8-22,1.7-23.4l-2-1.4C-153.2-77.3-152.9-63.4-154-62.8z"/>
	<path class="st3" d="M-136-31.1c0,0-13.2-8.8-15.2-25.9c0,0-0.5,17.1,8.3,24.1c0,0,13.5,15.1,24.3,12.6c0,0,5.7-1.7,2.1-6.6
		C-116.5-26.8-133.5-25.9-136-31.1z"/>
	<path class="st2" d="M-157.4-29.1c0,0-4.8,21.7,6.9,34.5c0,0,8,11.1,21.7,11.5c0,0,18.5,0.1,15.2-13.5c0,0-1.7-7.4-9.4-3.5
		c0,0-3.7,6,1.9,6.9c0,0-1.5-4.1,1.9-4.6c0,0,5.1,0.1,2.1,6.6c0,0-5.7,6.9-12.6,0.8c0,0-6-3.7-4.5-16.5c0,0,1.7-7.5-8.1-13.7
		c0,0-11.3-6.1-10.9-17.8s-0.1-0.7-0.1-0.7S-155.4-36-157.4-29.1z"/>
	<path class="st2" d="M-233.4-36.5c0,0-12.5-4.1-23.5,5.4c0,0-6.1,5.7-4.1,12.6c0,0,3.2,9.1,9.7,2.6c0,0,3.2-5.1-4.5-5.1
		c0,0,4.6,2.8,1.9,4c0,0-3.2,3.5-4.8-4c0,0,1.5-8.1,9.7-5.5c0,0,4.3,1.4,7.2,4.5c0,0,4.9,4.9,12.9,2.1c0,0,6.8-4.7,16.3,2
		c0,0,0.6-4.6-11.7-14.3C-224.3-32.2-232.2-36.2-233.4-36.5z"/>
	<path class="st2" d="M-447,24.5c0,0-2.4-9.5-14.1-6.5c0,0-10.7,2.2,1.2-3.3c0,0,15.6-7.4,25,9.8c0,0,8,10.7,0,23.2l-8.1,11.7
		c0,0-6.3,7.2-6.5,14.4l-0.8,3.9c0,0-6.4-15.2-5.5-26c0,0,1-6.4,5.3-9C-450.5,42.5-443.1,34.7-447,24.5z"/>
	<path class="st2" d="M-462.4,79.5c0,0-10.1-6-17.2,1c0,0-4.3,4.5-10.3,2.3c0,0-7.2-4.1-1.4-9.4c0,0,3.9-0.4,2.7,2.3
		c0,0,0,1.4-2.1,0.4c0,0,1.9,3.9,4.5-0.6c0,0,2.1-4.5-5.1-4.5c0,0-9.7,2.5-1,15.2c0,0,8.8,14,27.7,4.5c0,0,12-6.8,12.7-11.1v-1.9
		C-451.9,77.6-455,81.8-462.4,79.5z"/>
	<path class="st2" d="M-469.3,44.9c0,0-14.1-7.5-10.7-20.4l2.3-10.4l-8.9,19.5c0,0-8.6,25.2-9.4,28.9c0,0-10.5,26-24,29.5h-4
		c0,0,8.2,3.9,9.4,6.6c0,0,3.3,3.9,3.1,6.4c0,0,0-13.8,8.2-18.7l3.2-0.8c0,0-2.3-12.9,3.4-14.6c0,0,7-7.3,13.7,0
		c0,0,1.6,4.5-0.4,6.8c0,0,16.3-7.2,22.2-4.3l5.3,1.4c0,0-2.7-20.5-6.4-22.6C-462.2,52.2-464.6,46.6-469.3,44.9z"/>
	<path class="st3" d="M-547.4,103.5l2.4-4.7c5.7-8.2,19.9-2.7,19.9-2.7s11.1,6,9.8,19.3c0,0-2.7,18.5-7.4,21.1l-3.1-1.6
		c0,0,13.6-17.2,1.9-31.4c0,0-3.7-7.8-17.5-3.5c0,0-6,7-1.6,9.4c0,0,2,1.2,2.3-1.2c0,0,2.2-7,9.4-3.3c0,0,9.3,9.6-6.5,14.4
		c0,0-8.3-1-9.6-6.6"/>
	<path class="st2" d="M-547.4,127.3c0,0,11,36.3,13.5,38.6c0,0-11.4-10-13.5-9.2V127.3z"/>
	<path class="st2" d="M-529.2,125.8c0,0-9.2-3.4-8.8,14c0,0,0.6,19.1,10.5,31c0,0,12.7,13.7,20.7,15.6c0,0-10.9-4.5-19.3-19.3
		c0,0-7.3-10-5.2-25.6C-531.3,141.4-521.2,126.4-529.2,125.8z"/>
	<path class="st2" d="M-522.5,138.5c0,0-10.5-0.8-3.1,19.3c0,0,3.3,16.4,22.2,27.5l9.9,4.3l7.4,1.9c0,0-17.4-6.1-20.7-12.1
		c0,0-13.7-11.1-12.1-28.5C-519,150.9-514.3,136.8-522.5,138.5z"/>
	<path class="st3" d="M-493.7,108.2c0,0-10.7-8.8,2.9-17c0,0-5.6-5.9-12.9,2.1c0,0-5.5,16.8,12.9,19.9c0,0,17.4,4.1,27.1-20.7
		C-463.8,92.4-478.6,120.1-493.7,108.2z"/>
	<path class="st2" d="M-501.3,114.3c0,0-8.8-1.8-15,11.2c0,0-3.1,10.9-1.4,12.9c0,0,1.6-6.4,7-7.6c0,0,7.8,0.4,9.4-8.6
		c0,0,2.3-7.2,8-3.9c0,0,4.1,3.1,0,4.9c0,0-2.3-0.8-1.2-1.9c0,0-3.7,1.1,2.2,4.2c0,0,6.3-5.1,0-9.4
		C-492.3,116.2-494.9,113-501.3,114.3z"/>
	<path class="st2" d="M-484.2,116.4c0,0-8.1-0.8-5.6,12.3c0,0,5.9,12.5,17.8,1c0,0-5.3,17,3.7,30.8c0,0,6.8,15.8,28.1,12.9
		c0,0,14-4.9,5.5-14.8c0,0-6.6-4.3-7.6,4.1l3.1,3.1c0,0-2.2-6.3,2.3-4.9c0,0,6.4,6.4-5.1,9c0,0-10.5,0.6-9.9-16.6
		c0,0,2.3-9.2-10.1-16.8l-5.7-7.8c0,0,2.5-29.5,19.3-43.1c0,0,25.6-25.6,50.5-23.4c0,0,26.9-4.7,56.6,22c0,0,22.4,19.7,31.4,37.7
		c0,0,13.5,22,12.9,23.2s-16.5-37.8-28.5-47.6c0,0,22.1,2.5,17.6-16.2c0,0-1.4-7.8-11.1-7c0,0-7.8,1-5.5,8.8c0,0,0.8,7.2-5.1,2.5
		c0,0-5.5-10.3,5.3-18.9c0,0,17-13.9,33.6,8c0,0,8.6,8.8,3.7,26.7c0,0-3.7,7,2.5,7.2l5.5-9.2c0,0,8.6-10,15.6-3.5
		c0,0,6.4,4.3-1.2,11.3c0,0,6.4,2.9,8-3.3c0,0,3.9-5.3-7.6-11.9c0,0-9.2-0.8-14.8,5.1c0,0,5.3-25.4,15.2-28.7c0,0,11.5-13,24.8-1.3
		c0,0,6.6,4.1,4.5,13.5s-7.6,3.9-7.6,3.9s6.8-9.2-4.3-12.5c0,0-13.5-1.9-10.9,14c0,0,2.9,5.5,3.9,5.1c0,0-3.3,23.2,14.4,34.7
		c0,0,5.5,3.1,6.8,3.1c0,0,8.8,7.6,2.9,16.8c0,0-3.9,6.6-12.1,2.7c0,0-5.5-4.1,0-3.3c0,0,7.6-6.8-3.1-9c0,0-6.4-0.4-5.5,7.8
		c0,0,1.9,10.5,15.6,7.6c0,0,8.8,0,9-11.9c0,0,7.2,14.8,10.7,14.8c0,0,10,12.1,24.2,2.5c0,0,18-12.5-1.4-26.7c0,0-12.3-2.3-13.5,9.2
		c0,0,0.6,10.3,8.8,8.6c0,0,6.4-2,5.1-5.7c0,0,0.2-3.9-1.2-4.7c0,0,6-2.7,6.1,4.7c0,0,1.2,14.8-19.3,12.7c0,0-14.8-4.7-17.6-24.6
		c0,0,10.5,2.7,28.1-15c0,0,11.9-9.9,14,0c0,0,1.6,4.1-1.9,1.6c0,0-6.6-1.4-2,4.1c0,0,3.3,3.3,6-3.3c0,0,1.9-9.2-9-9
		c0,0-7.8,1.9-8.6,3.9c0,0-3.1,4.1-1.2-8.2c0,0,0.8-14.6-16.4-19.7c0,0-10.3-1.2-16.2,5.3c0,0-13.3,15,5.3,23.8
		c0,0,11.3,1.4,11.5-10.3c0,0-0.6-11.9-11.5-5.3c0,0-3.5,8,2.7,9c0,0,5.5-3.7,3.5,1.9c0,0-3.7,7.4-12.3-1.4c0,0-6.8-9.9,5.7-19.1
		c0,0,18.5-9.4,24.6,12.3c0,0,6,10-8.4,21.7c0,0-13.7,11.3-29.5-1.4c0,0-12.1-8.4-10-27.7c0,0,14.4,4.9,17.4-10.9
		c0,0,5.7-14.6-11.7-22.4c0,0-11.5-3.3-16.6,1l-3.5,1.9c0,0,8-9.9,16.8-11.9c0,0,14-5.9,18.7,2.9c0,0,3.1,5.3-3.1,4.9
		c0,0-2.9,0.4-1.9-4.9c0,0-4.7,3.9,0.2,9.4c0,0,13.5,5.5,13.3-8.4c0,0,0.6-8.4-9-9c0,0,1.6-9.4-10.7-9c0,0-9.2,0-22,17.2
		c0,0-9.4,12.5-15.2,24.8l-1.9,5.1c0,0-1-15.8-18.3-28.1c0,0-12.7-9.9-31.2-10.3c0,0-14.4-0.8-21.9,1.4c0,0-12.7,1.9-16,0.6
		c0,0-23.8-5.2-13.5-23.6c0,0,8.4-5.8,13.7,0c0,0,1.4-10.9-11.7-9.2c0,0-7.4,1.9-8.4,11.3c0,0-3.6,14.8,14.9,21.1
		c0,0-8.6-0.2-14.5-7.2c0,0-7.2-10.3-0.6-24.2c0,0,6.6-13.4,22.8-7.3c0,0,7.8,5.8,2.3,14.1c0,0-1.9,3.1,1.4,3.9
		c0,0,6.6,2.1,4.3-12.9c0,0-5.5-9.9-19.5-8.2c0,0-10.3,2.5-13.1,10.1l-2-4.7c0,0-9.8,11.1-2.1,18.7c0,0,3.7,12.6,10.1,15.5
		c0,0-1,4.4-8-1.1c0,0-1.6,11.5,19,14.6c0,0,5.4,0.6,10.1-2.3c0,0,7.4-5.1,2.1,3c0,0-5.5,6.3,2.6,4.8c0,0,5.8,1.6,26.7-11.3
		c0,0,18.1-9.2,37.3,11.1c0,0,9.2,9.2,11.1,21.1c0,0,2,9.2-2,12.7c0,0,3.3-15.2-7.2-27.1c0,0-9.7-16.6-33.1-9.2
		c0,0-16.4,5.1-11.6,23.8c0,0-23.5-25-53.9-27.3c0,0-28.9-4.3-57.2,19.5c0,0-19.3,14.8-24.4,42.3l-0.4,5.7c0,0-8.7,11.8-16.2,4.4
		c0,0-1.3-1.5-1.2-6.8c0,0,2.3-3.9,4,1c0,0,5.2,0.2,4.6-4.7C-479.6,119.5-481.1,115.6-484.2,116.4z"/>
	<path class="st3" d="M-349.2,30c0,0-10.2,2.8-6.7,10.3c0,0,2.5,6,4.9,6.5l-2.5,1.2c0,0-6.2-4.6-4.7-12c0,0,4.5-14.1,16.8-8.6
		c0,0,7.9,5.7,0,10.8c0,0-7.1,1.2-6.8-5.4C-348.3,32.7-341.5,29.7-349.2,30z"/>
	<path class="st3" d="M-319.8,57.4c0,0-18-1.2-25.4,7.7c0,0-4.9,4.5-3.1,9l3.4,2.5c0,0,4.3-0.4,7.7-6.9c0,0,7.5-9.2,12.1-10
		L-319.8,57.4z"/>
	<path class="st2" d="M-312.5,20.9c0,0,26.8-2.6,34.6,29.9c0,0,3.1,9.1,0.6,22.2c0,0-3.6-14.7-13.7-15.6c0,0-14.3-3.3-15.7-16.4
		c0,0-1.4-13.4-11.7-13.7c0,0-10.6-0.2-8.2,9.8c0,0,3.9,4.4,5.7-0.7c0,0,0.4-2.9-2.4-2.8c0,0,8.4-0.5,3.4,7.1c0,0-4.1,5.3-10-3.6
		C-329.8,37-334,22.7-312.5,20.9z"/>
	<path class="st2" d="M-405.7,19.7c0,0,13.4,6.5,9.7,22c0,0-0.8,8.5,8.1,14.8c0,0-10.1,0.1-23.1-11.9c0,0-17.5-16.8-6.1-38.2
		c0,0,6.9-12.1,17.2-7.1c0,0,4.5,2.9,3.4,5.5c0,0,1.1,4.6-4,5.4c0,0-5.2,0.3-3.9-5.9c0,0,3.2,7.6,5.3-0.3c0,0-5.9-8-12.3,2.9
		C-411.4,7.1-413.4,14.4-405.7,19.7z"/>
	<path class="st2" d="M-547.4,162.7c0,0,18.1,3.7,26.7,20.3c0,0-7.7-5.7-15.4-3.2c0,0-9.8,4.3-11.3,3.2V162.7z"/>
	<path class="st2" d="M-533.9,183.8c0,0,17.7-0.7,27.1,7.6c0,0-8.7-1-11.9-0.9c0,0-9.9-0.8-19.3,6c0,0-7.6,4.8-9.4-0.9v-6.6
		C-547.4,189.1-545.7,184.1-533.9,183.8z"/>
	<path class="st2" d="M-455.4,211.2c0,0-6-5.2-17.4-6.9c0,0-17.4-6.9-30.6-8.5c0,0-24.5-5.7-32.3,5.2c0,0-2.9,3.9-2.4,8
		c0,0-10.3,12.6-8.4,30.6c0,0,2.5,16.1,9.1,25.2c0,0,10.5,14.8,17.8,20.5c0,0,10.5,10.8,10.7,19.6c0,0,1.8,12-7.6,16.9
		c0,0-7.7,7-19.4,3.8c0,0-13.6-6.3-8.5-18.4c0,0,3.1-4.5,7.5-3.6c0,0,4.5-0.8,3.1-3.6c0,0-0.6-3.3-7.4-0.6c0,0-5.8,2.6-6.3,8
		c0,0-0.8,13,6.4,17c0,0,4.4,5.1,14,4.1c0,0,1.1,1-2.5,3.6c0,0,8.4,1.7,13.1-3.5l4-7.4c0,0,5.7-7.1,5.3-14.8c0,0,3.5-0.5,3.1,7.4
		c0,0,7.4-4.4,2.5-19.6c0,0-1.1-5.5-9.3-10c0,0-6.5-2-1.7-3.2l5.7-0.4c0,0,5.7,0.5-3.9-7.8c0,0-4.8-4.4-13.5-7.6
		c0,0-10.1-3.4-12-7.6c0,0-9-9.6-8.2-24.1c0,0,0.8-15.1,7.7-23.6l2.5,1.7c0,0-12.6,14-2.7,31.9c0,0,12.6,20.7,31.2,7.9
		c0,0,16.3-13.4,0.7-25.3c0,0-8.4-5.7-16.8,3.2c0,0-6,11.2,5.2,14.6c0,0,4.8,1,6.1-1.9c0,0,5-6,5,2.4c0,0-5.2,11-19.7,5.1
		c0,0-16.4-5.9-11.4-27.3c0,0,1.2-7,4.6-10.1c0,0,4.5,1.2,8.7-0.3c0,0,17.1-8.5,21.8-7.5c0,0,13.7-2.6,20.4-0.7
		c0,0-10.5,1.1-12.7,2.8c0,0-11.9,5.2-13.4,8.8c0,0-4.1,3.4,0,8s7.5-5.4,7.5-5.4s4.7-7.1,9.9-8.5c0,0,6.1-2.9,12.4-2.8
		c0,0,7-0.7,13.7,1.3L-455.4,211.2z"/>
	<path class="st2" d="M-534.2,252.1c0,0,8.4,8.6,24.1,7c0,0,7.8,1,3.8,6.5c0,0-3.7,6-15.2-1C-521.4,264.5-528.6,261.1-534.2,252.1z"
		/>
	<path class="st2" d="M-506.3,283.4c0,0,12.4-3.8,23.8,7.1c0,0,9.3,8.5,5.1,19c0,0-3.3,10.4-10.9,5.1c0,0-3.8-3.2,2-6.1
		c0,0,3.1,0.1,2,3.3c0,0-0.3-2.9-3.4-0.5c0,0-0.3,4.5,5,2.4c0,0,5.6-4.4-0.6-9.7c0,0-3.2-2.5-4.5-2c0,0-7.4-2-8.6-7
		C-496.3,294.7-498.3,284.1-506.3,283.4z"/>
	<path class="st2" d="M-513.7,301.9c0,0,2.3,17-13.6,15.2c0,0-6.2-2-6.8-9.6c0,0-5.6,3.6-3.3,9.2c0,0,1.7,6.8,11.2,6.6
		c0,0,10.5-1,12.6-9.4c0,0,3-5.5,1.1-13.9c0,0-1-6.7-10-16l-1.5-1.3C-524.1,282.7-512.3,296.7-513.7,301.9z"/>
	<path class="st2" d="M-491.1,220.6c0,0-12.8,11.2-1.7,16c0,0,6.4,3.3,13.7-3.5c0,0,15.9-10.9,31.4-8.6c0,0,17.9,0.1,27.1,7.9
		c0,0,5.1,2.8,5.2,3.5c0,0-5.7-10-17.1-14.6c0,0-2.9-2.4-8.7-3.8c-4.1-1-9.7-3.1-15.1-3.9C-468.6,211.9-483.1,214.1-491.1,220.6z"/>
	<path class="st2" d="M-490.3,144.4c0,0-9.8-4.9-13.6,6.3c0,0-3.7,13.9,12.6,16.8c0,0,5.1,1.4,12.6,2.3c0,0,17.7,2.9,15.1,10.3
		c0,0,0.6,10.3,2.1,1.7c0,0,2.1-5.7-1.2-8.8c0,0,6.5,9.1,19.7,6.7c0,0,11.7-2.7,16.9-14.7c0,0-4.8,11.5-4.6,24.3
		c0,0,1.9,23.5,8.5,30c0,0,3.4,6.9,2.9,7.4c0,0-9.4-13.5-39.9-25.7c0,0-43.7-19.5-47.8-27.1c0,0-18-19.6-1.3-36.5
		c0,0,18.8-13.1,28.8,5.2c0,0,5.6,12.3-4.8,16.5c0,0-4.6,2.6-8.6-0.5c0,0-2.8-1.5-1.9-9.5c0,0,0.3,9.9,6.6,4.6
		C-488,153.5-482.7,147.8-490.3,144.4z"/>
	<path class="st2" d="M-455.8,132.7c0,0,5.3,18.1,13.6,13c0,0,5.1-2.5,0-6c0,0-11.5-7.9-12.1-14.1c0,0-3.8-18.8,2.4-29
		c0,0,2.9-5.9,3.5-5.4c0,0-6.7,3.7-10.4,24.1C-458.8,115.4-458.7,128.8-455.8,132.7z"/>
	<path class="st2" d="M-415.8,68.4c0,0-19.4,8.3-27.5,20c0,0-10.9,13.1-7.7,26.9c0,0-0.3,16.8,16,20.1c0,0,17.7,1.4,19.2-12.6
		c0,0,2.8-12.8-8.5-18c0,0-8.9-2.9-15.6,3.2c0,0,12.5-0.1,9.4,7.2c0,0-1.1,8.1-10.5,2.6c0,0-8.6-5.3-2.5-20.8c0,0,5.1-12,13.1-16
		c0,0,14.6-10.3,21.2-12c0,0,14.5-6.5,19.7-4.6C-389.4,64.6-400.3,63.2-415.8,68.4z"/>
	<path class="st3" d="M-426.9,80c0,0-6.5,12.9,5.4,15.1c0,0,5.2,0,5.7-1.2c0,0,5.2-2.7-1.2-2.6c0,0-4.8-4.9,2.1-7.5
		c0,0,8-0.4,5.7,7.5c0,0-2.3,9-13.9,5.9c0,0-10.2-2.4-7.2-14.7"/>
	<path class="st2" d="M-176.4-66.6c0,0,15.9-23.3,1-47.6c0,0,15.3,12.9,17.1,37.9c0,0,3.9,16-6.8,29.5c0,0-11.1,16.4-28.9,19.7
		c0,0-11.5,5.1-16,18.9c0,0-8,16.2,11.5,23.8c0,0,7.2,1.4,9.9-3.5c0,0,3.6-9.2-4.1-3.3c0,0-9.9,5.5-9.2-10.3c0,0,8.2-10.3,16-2.3
		c0,0,6.1,4.6,3.9,9.3c0,0-0.6,11.3,9.9,18.4c0,0,8.9,6.6,17.2-4.1c0,0,1.6-10.9-4.5-7.2c0,0,3.3,10.1-7.2,6.1c0,0-7.8-8.8,6-12.3
		c0,0,11.1,0.2,8.6,13.3c0,0-4.5,13.3-19.9,8.2c0,0-8.9-6.6-9.7-11.3c0,0,2.1,24.3,17.5,30c0,0,22.8,8.2,25.6-11.5
		c0,0,1.4-9.3-3.9-14.5c0,0,19.3-0.3,15.8,18.6c0,0-2.5,17.6-28.3,15.2c0,0-18.5-3.3-25.4-22.4c0,0,9.4,26.7,17.6,30.1
		c0,0,14.6,11.7,25.4,6.4c0,0,3.2-0.9,4.6-3.4c0.5-0.9,0.8-1.9,0.7-3.2c0,0-0.2-9.9-10.7-4.9l-0.8,3.7l-2.3-0.2
		c0,0,2.5-8.6,10.1-5.9c0,0,7.3,2.3,4.3,10.5c0,0-4.7,6.5-11.2,5.6c0,0-11.3-0.3-14.7-3.6c0,0-11-6.9-11.4-9.1c0,0-6.1-7.9-6.1-9.4
		c0,0-5.1-9.6-6.4-15.6c0,0-2.9-16.6-2.2-21.5c0,0-6.1,11.2-18,7.4c0,0-11.6-2.9-14.1-13.9l-0.5-7.9c0,0-5.9,6.1-12.5,3.3
		c0,0-9.1-4.5-4.5-13.4c0,0,5.1-6.9,10.7,0.4c0,0,1.9,6.6-4.1,6.9c0,0-4.2-0.4-3.3-4.4c0,0,2.9-4.1-1.5-2c0,0-4.2,5.9,1.9,9.1
		c0,0,5.9,4.4,12.5-1.5l1.6-1.7c0,0,3-12.5,14.5-20c0,0-23.7,0.1-25.9-20.9c0,0,2.1-7.5,2.5-0.1c0,0,1.5,17,22.2,17.1
		c0,0,17.1-0.4,25.7-13.8c0,0-15.9,4.6-20.7-8.5C-196.9-51.9-181.2-53.5-176.4-66.6z"/>
	<path class="st2" d="M-316.3-62.3c0,0-13.9-7.4-20.5,11.7c0,0-9,27.4,38.1,68.6c0,0,30,26.8,33,27c0,0-30-25.4-37.6-45.1
		c0,0-8.6-17.2,3.7-28.5c0,0,15.8-14.5,25.6,8.2c0,0,0.4,2.3-3.5,0c0,0-7.6-3.4-9,7.3c0,0,3.5,15.2,17,5c0,0,8-5.9-1.2-20.9
		c0,0-7.4-8.4-16.2-7.5c0,0-10.5-1.5-16.5,7.5c0,0-5.5,4.5-6.7,13.7c0,0-9.4-22.6,0.2-38.2c0,0,11.6-17.8,18.4-3.2
		c0,0,4.3,10.4-11.9,4.4c0,0,8,12.7,19.1,4.7c0,0,15-14.6-1.9-28.1C-285.9-75.6-311.8-86.9-316.3-62.3z"/>
	<path class="st2" d="M-280,9.7c0,0,1.6-9.6-8.2-15.8c0,0-9-12,0-17.4c0,0,0.4-2.3,8.3-2c0,0-6.6-5.6-15.9,0c0,0-11.5,6.8-3.7,25.4
		c0,0,10,19.9,19.6,27.3C-279.9,27.2-278.8,10.7-280,9.7z"/>
	<path class="st2" d="M-249-1.5c0,0-10.5-7.8-20.9,7.1c0,0-8,11.2,2.9,34.4c0,0-13.7-21.3-4.5-38.6c0,0,9.2-17,28.5-11.3
		c0,0,10.3,4.9,8.6,14.4c0,0,0.3,4.3-2.6,6.4c0,0-0.4,13.6,2.6,15.1c0,0,7.4,11.1,17.8,5.6c0,0,4.4,0.7,7-7.2c0,0,0.2-6.7-3.9-4.5
		c0,0,2,8.5-7.8,6.1c0,0-8.2-5.6,1.2-13.3c0,0,13.3-4,13.3,10.2c0,0,0.2,12.4-15.8,12.1c0,0-16.4,0-16-23c0,0-6.5,5.3,5.1,21.1
		c0,0,8,8.8,17.6,7.8c0,0,14.4-6.1,18.7-5.3c0,0,7.8-0.6,1,3.5c0,0-2.3,3.9,3.5,1.9c0,0,9.4-4.6,14.8,6.8v1.6c0,0-3.3-2.7-4.3-1.6
		c0,0,6.1,5.7,5.1,9.4c0,0,2.2,7,1.6,7.6c0,0-1.9,4.4-4,5.2l-0.6-2.8c0,0-4.1,6.7-11.1,5c0,0-8.8-1.1-9.3-7.9c0,0-0.4-4.1,1.2-5.1
		c0,0,4.2-3.5,3.1,1.6c0,0-4.5,2.9-0.5,7.6c0,0,7.2,5.6,12.1,1.2c0,0,9.9-8.4,3.7-18.5c0,0-4.9-7.1-19.5-6.1c0,0-18.1,1.4-23.6-3.4
		c0,0-12.5-6.6-13.7-11.4c0,0-5.6-9.1-4.6-14.4C-242.1,15.9-238.8,3-249-1.5z"/>
	<path class="st2" d="M-247.4,24.1c0,0-7.6-8.9-15.2,0.5c0,0-8,9,1.4,22.7l-1.7,1c0,0-8-10.6-4.6-19.9c0,0,7.7-14.8,17.1-10.1
		c0,0,9.7,3.1,8.7,11.4c0,0-0.4,11.7-10,7.1c0,0-5-5.1,0.6-9c0,0,6.6,3.3,5.5-0.2C-245.6,27.7-245.9,24-247.4,24.1z"/>
	<path class="st2" d="M-221.5,45.8c0,0,21.2,5.2,18.3,22.9c0,0,1.2,10.5-10.6,11.2c0,0-7.4-1.7-1.1-7.1c0,0,4,0.7,1.9,3.6
		c0,0-1.5-4.6-2.6,0c0,0,2.8,5.1,7.2-0.7c0,0,1.3-7.6-6.1-10.3c0,0-3.4-5.6-2.6-11.7C-217.2,53.8-216,48.1-221.5,45.8z"/>
	<path class="st2" d="M-187.5,78.1c0,0,10.8-0.3,14.6,8.8c0,0,3.2,9.7,12.1,8c0,0,6.3-0.9,4.9-7.4c0,0-2-4.9-5.1-0.9
		c0,0,0,3.3,2.6,3.1c0,0-6.6,1.7-4.5-6.6c0,0,7.9-4.5,9.7,4.5c0,0,2.3,19.4-27.3,13.5c0,0-17.1-7.2-21.3-24.1
		c-4.1-16.9,2.1-3.2,2.1-3.2S-195.5,78.4-187.5,78.1z"/>
	<path class="st2" d="M-390,66c0,0-2.6,4.6-2.3,6.9c0,0-0.5,5.2-4.8,5.5s-4.3,6.6-4.3,6.6s1.7,3.4,4.3,2s-0.9-2.8-1.4-1.9
		c-0.5,0.9,0.9-4.8,3.7-0.1c0,0-0.8,6.9-7.5,1.5c0,0-6.6-8.5,2.1-17.4c0,0,4.7-4.9,14.1-4.9C-386,64.3-391.8,65.1-390,66z"/>
	<path class="st2" d="M-382.8,119.5l2.6-3.4c0,0,2-12.1-5.9-14c0,0,7.1,12.6-6.1,10.5c0,0-11.4-9.1,6.8-17.4c0,0,15.7-6.4,32.3,2.5
		c0,0,29.4,12,46.3,36.4l7.7,9.9c0,0-17.5-31.7-24.1-37.1c0,0-11.9-15.6-15.2-17.2c0,0-32.9-31.7-51.9-15.1c0,0-5.7,4-3.7,12.9
		c0,0-17.1,1.2-17.5,19.7c0,0,0.8,14.8,11.9,17.1c0,0-1.9,4.8-9.1,5.5c0,0-8.9-0.1-12.9,11.9c0,0-2.4,7.5-9.1,4.9
		c0,0-5.8-1.2-3.5-6.8c0,0,6-1.5,1.9,2c0,0,1.5,2.5,3.5-1.4c0,0,1.4-5.3-5.9-3.1c0,0-9.3,9.4,7.6,14.3c0,0,13.5,5.4,24.1-10.6
		c0,0,5.7-9.2,5.4-16.3c0,0,5.2,2.3,11.7-1.9c0,0,14.3-1.7,15.2,4c0,0,3.8,4,2,7.8c0,0-2.7,6.9-8.9,2.6c0,0-2-1.3,1.2-1.3
		c0,0,4.2-5.9-4-4.8c0,0-5.3,4,3.3,8.7c0,0,7.4,1.7,9.3-3.4c0,0,2.2-4.8-0.7-9c0,0-3.1-4.1,2.3,0.6c0,0,7.8,7.3,8.4,12.2
		c0,0,3.7,11-1.1,16.3c0,0-8,12.1-18.6,7.7c0,0-1.4-0.3-2.7-2.4c0,0,3.8,2,7.1,0.9c0,0,7.5-4.5,5.7-11.4c0,0-4-14.4-22.8-11.5
		c0,0-17.3,4.8-24.1,15.7c0,0-12.1,15.7-9.5,33.8c0,0,0.5,14.7,8.4,29.3c7.9,14.7,12,15.4,12,15.4s-6-14,0.2-23.6
		c0,0,14.1-20.2,12-22.9c0,0,0.7-13.3-3.8-20c0,0-3.4-9.4,1.4-15.8c0,0,5.2-7.6,8.1-6.1c0,0-5.3,3.4-4,12c0,0,2.9,10.9,14.1,11.3
		c0,0,11.6,2.5,19-10.4c0,0,8.5-19.8-6.3-31c0,0-10.3-7.8-17.5-7.5C-380.2,120.3-383.1,120.7-382.8,119.5z"/>
	<path class="st2" d="M-297,147l11.9,18.5c0,0,2.9,17.4-8.6,16.2c0,0-4.2,1.4-5.4-5.1c0,0-1.6-4.3,2.7-1.4c0,0,8-4.5-1.6-7.2
		c0,0-7.6,1.4-3.7,10.3c0,0,5.7,10.5,15,2.5c0,0,4.9-2.7,3.7-12.3c0,0,5.5,11.1,2.3,19.1c0,0-6.4,16-18.3,11.9
		c0,0-7.2-0.2-10.2-14.2c0,0-11.9,7.8-1.2,18.7c0,0,11.5,9.6,23-1c0,0,2.6-1,4.5-4.1c0,0-1.2,10.7,4.8,12.5c0,0,6.2,3.9,10.9-1.9
		c0,0,4.1-6.5-3.9-9.5c0,0-5.2,0.1-4.5,3.1c0,0-1.2,5,3.3,4.8c0,0,2.2,0.2,2.5-2c0,0,1.3-3.7,1.9,0.7c0,0-0.5,4.8-6.2,4
		c0,0-6.6,0.5-7.2-11.4c0,0,3.6-8.1,3.7-18.8c0,0-0.3-6.6-1.3-6.9l3,4.2c0,0,5.6,9.2,17.2,18.1c0,0,13.2,11.4,27.9,13.3
		c0,0,15.2,4.1,28.6-5.4c0,0,13.5-10.5,1.7-19.3c0,0-10.6-3.2-11.9,7.3c0,0,0.5,3.2,1.1,3.8l2.1,0.1c0,0-3.2-5.3-0.2-7.9
		c0,0,8.3-7.2,11.8,3.3c0,0,3.2,12.7-19.2,17.3c0,0-20.6,2.3-33.9-8.6c0,0-15.8-10.6-21.8-18.7l-2.9-3.8c0,0,12.7,15.8,27.5,20.9
		c0,0,11.6,6.3,20.2-2.1c0,0,5.2-4.5,2.2-10.2c0,0,6.5,0.8,10-4.9c0,0,8.8-11.5-1.9-21.2c0,0-10.9-7.9-18.3,2.7c0,0-4,9.2,3.5,12.3
		c0,0-3.5-8.7,3.7-8.2c0,0,9.9,5.1-0.9,12.2c0,0-7.3,5.9-22.8,1.7c0,0-6.6-2.2-6.8-2.5c0,0,13.7-1.3,14.4-12c0,0,2.9-15.5-12.5-18.2
		c0,0-15.2,1.8-6.3,12.8c0,0,5.6,3.8,8.8-1.4c0,0,1-2.5-0.5-3.8c0,0-1-3.6,4.8,1.4c0,0,9,10.4-3.9,17.3c0,0-12.1,6.5-27.8-11.8
		c0,0-9-8.4-9.8-10L-297,147z"/>
	<path class="st2" d="M-318.7,125.1c0,0,15.2,11.1,14.8,35.8c-0.3,24.7-23.9,30.9-23.9,30.9s-12.3,2.7-16-8.3c0,0,0.5-12.8,10.2-6.1
		c0,0,2.5,4.5-2.1,6.7c0,0,2.4-6.6-3.3-4.4c0,0-3,2.4,1.1,6.7c0,0,5.9,5.2,12.5-3.3c0,0,3.9-3.8-1.1-18.3c0,0-3.7-10,6.1-20.1
		C-320.4,144.7-314,138.1-318.7,125.1z"/>
	<path class="st2" d="M-354.3,133.7c11.8,16.9,4.8,30.1,4.8,30.1s-3.3,7.5-8.2,11.8c0,0-7.7,7.7-7.6,16.5c0,0-6.5,9.7-16.9,5.6
		c0,0-7.9-4.1-3.5-12c0,0,3.7-4.8,2.8,0c0,0,4.7,6.8,8.3-1.3c0,0,2.1-6.6-6.9-6.6c0,0-8.8,0.4-8,12.9c0,0,1.5,15,20.1,8
		c0,0,4.5-3.2,4.5-4c0,0,10.7-6.9,7.6-1.9c0,0-10.9,9.5-0.5,25.2c0,0,2.4,3.8,5.9,3.7c0,0-3.6-5.1-0.5-7.9c0,0,0.8,4.1,8.2,9
		c0,0,7.6,4.6,8.2,5.3c0,0,4.1,3.1,12.7-1.9c0,0-2.7-1.8-4-1.8c0,0,16.3-5.9,11.1-21.7c0,0-2.5-11.2-13.7-8.4c0,0-6.6,3.1-1.3,4.9
		c0,0,2.2,1.1,6.5-1.1c0,0,8.5,0.5,7.7,11.4c0,0,1.2,12.7-17,13.8c0,0-15.1,1.1-18.2-14.8c0,0-1.5-13.1,2.7-22.4
		c0,0,6.7-10.5,5-29.9c0,0-0.7-19.5-13.5-30.2c0,0-6.6-4.9-15.3-6.6c0,0,15.3-0.5,21.1,4c0,0,16.6,7.5,18.6,17.5
		c0,0,2.6,11.2-4.3,10.2c0,0-6.8-3,1.6-5.4c0,0-1.1-2.7-6.6-0.1c0,0-6.1,8.5,2.5,13c0,0,8.1,3.9,13.3-5.8c0,0,1.7-4.6-0.4-7
		c0,0,8.5-1.4,4.4-11.3c0,0-4.3-11.2-27-15c0,0-12.9-2.4-23.9-2.9C-374.1,116.6-366.1,116.8-354.3,133.7z"/>
	<path class="st2" d="M-374.1,116.6c0,0-6.6-1.4-7.4,2.5l8.1,0.3"/>
	<path class="st2" d="M-388.3,208.2l1.7-5.1c0,0-13.5,2.1-16.2,16c0,0-3.9,14.8,10.5,28c0,0,4,4.5,10.3,6.3c0,0,16,6.5,11.3,13.4
		c0,0-5.9,6.1-7.2-3c0,0-9.2,0.5-3.2,10.4c0,0,8,9.7,16-1.5c0,0,6.5-10.5-8.4-19.1c0,0-14.2-3.6-18.9-8.9c-4.7-5.3,3.8-0.7,3.8-0.7
		s7.3,2.1,12.8-1.1c0,0,1.8,10.2,12.6,13.4s18.4-3.2,18.4-3.2s5.8-5.3,5.2-7c0,0,6.5-10.5,9.9-6.5c0,0,3.2,4.2,0,2.4
		c0,0-4.9,1.6-0.1,3.3c0,0,6.6-1.9,0.5-7.1c0,0-6.4-2.8-9.2,3.5c0,0-1.5,2.1-1.6-3.4c0,0-0.8-9.8-13.6-11.6c0,0-6.8-0.9-9.9,5.9
		c0,0-6.3,13.3,7.9,13.9c0,0,10.3-3.6,2.6-11.4c0,0-9.5-1.8-4.9,5.9c0,0,1.2,2.1,3.3,0.4c0,0,2.4-1.5,1.3,2.1c0,0-2.1,3.3-6.4,1.1
		c0,0-7.9-4.8-0.8-13.7c0,0,9.5-7.9,17.3,3.4c0,0,5.9,12.4-6.5,19.1c0,0-11.7,6.7-21-5.6c0,0-2.5-3.8-3.2-7.1c0,0,10.9-7.4,0.3-18.4
		c0,0-12.7-6.9-15.8,4.5c0,0,0.6,10.5,4.8,6.9c0,0-0.2-6.9,3.8-5.9c0,0,8.8,3.5-0.2,9.8c0,0-5.4,4.6-14.8-4.9c0,0-6.2-11.1,1.3-19.4
		C-394.6,213.1-393.1,209.6-388.3,208.2z"/>
	<path class="st2" d="M-421.5,234.2c0,0-29.7-9.6-31.2,6.9c0,0,0.8,10.6,15.6,3.8c0,0,8.4-3.3,18.3-1.7c0,0-11.7,1.1-15.7,7.3
		c0,0-8,10.7-7.8,23.4c0,0,0.6,14.6,11.5,22.2c0,0,13.7,9.8,26.4,0.7c0,0,15.1-14.5-1.5-26.7c0,0-7.9-5.3-13.9,2.9
		c0,0-6.9,9.6,4,15.7c0,0,10.1,1.6,6.3-8c0,0-3-5.2-5.7,0.7c0,0-0.4,3.7,2.2,3.9c0,0,3.9-0.2,1.2,1.2c0,0-4.9,3.4-8.7-4.9
		c0,0-0.3-10.5,9-11.5c0,0,8.5-0.3,10.9,9.9c0,0,3.1,14.1-10.8,18.5c0,0-22.9,4.4-28-20.4c0,0-2.2-9.4,0.5-14.6
		c0,0,0.1,10.5,11.2,12.1c0,0,8.4-0.4,8-8.5c0,0-6.3,4.7-12.8-1.6c0,0-9.7-11.4,8.7-19.8c0,0,12.5-3.3,22.5,1.5
		C-401.5,247.2-407.1,238.4-421.5,234.2z"/>
	<path class="st2" d="M-286.1,204.6c0,0-0.2,7.8-10.1,10.1c0,0-7.8,1.5-8.8,11.9c0,0-1.2,7.7-9,5.9c0,0-6.6-2.4-1-7.3
		c0,0,3.8,2.8,0,3.8c0,0,7.9-1.8,0.7-5.7c0,0-7.1-1.1-5.2,7.8c0,0,3.8,8.2,16.1,5.7c12.2-2.5,16.5-15.2,16.5-15.2
		S-283.8,214.3-286.1,204.6z"/>
	<path class="st2" d="M-332.5,215.4c0,0-10.4,5-16.1-7.8c0,0-2.7-4.2,0-19.5c0,0-4.6,10.8-1.6,19.6c3,8.8,9.2,11.2,9.2,11.2
		s4,3.5,13.2,0s4-13.2,4-13.2s-1.7-3.3-5.8-2.4C-329.6,203.4-326.5,212.1-332.5,215.4z"/>
	<path class="st2" d="M-206.6-150.2c0,0,20.3,21.3,24.2,33c0,0,12.5,21.6,2.8,34.6c0,0-3.7,6.4-11.6,2.1c0,0-3.9,9.2-13.8,17.3
		c0,0-7.8,9.5-26.2,13.1c0,0-7.7,0-4.2-6.9c0,0,2.5-3.8,9-2.2c0,0,9.4-0.3,21.7-9.7c0,0,4.6-3.2,4.6-4c0,0-8,2.3-12.8-4.5
		c0,0-8.8-12,5.7-17.7c0,0,6.8-2,8.5,6c0,0-4.5-3.4-7.4-0.8c0,0-2.9,7.7,6,6.6c0,0,14.1-2.3,10.3-31.1
		C-189.9-114.2-196-138.5-206.6-150.2z"/>
	<path class="st3" d="M-213.2-55.1c0,0-4.2,10.8,4.6,14.5c0,0,6.3,2.5,8.5-2.2c0,0,0.5-5.9-2.2-1c0,0-7.8,4.1-5.5-6.2
		c0,0,6.8-6.3,10.9,2.5c0,0,1.3,10.8-9.3,10.2s-11-11.9-11-11.9l0.9-4.8"/>
	<path class="st2" d="M-275.5-34.5l0.8-11.7c4.3-17.4,18.5-13.5,18.5-13.5s10.5,1.7,6.8,10.8c0,0-2.9,4.2-3.2-1.1c0,0-0.3-8-9.4-3.1
		c0,0-6.9,8.9,6.3,13.4c0,0,16.7-2.2,7.1-19.4c0,0-14.2-14.5-26.8,4c0,0-4.8,10.5-2.9,18.5"/>
	<line class="st2" x1="-320.3" y1="-97.6" x2="-321" y2="-99.1"/>
	<path class="st2" d="M-416.5,60.1c-1.2,0.5-5.5-4.6-5.5-4.6c-3.1-10.4,6.8-12,6.8-12s9.4,3.1,3.5,8.3c0,0-1.5,3.8-5.7-1.6
		c0,0,1.1-3.9,2.6-2.3c0,0,4.9-0.1-0.6-2.9c0,0-8.9,2.6-3.5,10.8l4.2,3.6"/>
	<path class="st3" d="M-342.9,108c0,0-18.6-14.9-29.7-5.4c0,0-7.4,14.9,13.5,10.8c0,0,21.7,0.2,33.2,10.5
		C-325.9,123.8-327.9,117.8-342.9,108z"/>
	<path class="st2" d="M-353.4,157.8c0,0-3.7,8.8-12,13.2c0,0-8.8,3.2-7.2,7.1c0,0,4.9,7.4,12.5-2.3
		C-360.2,175.8-350.9,164.9-353.4,157.8z"/>
	<path class="st2" d="M-323.6,74.1c0,0,15.2-14.8,30.3,0s-3.5,41.2-3.5,41.2s-2.4,14.5-2.5,15.1c0,0-13.1-18.6-7.8-30.5
		C-307.2,99.9-290.9,66.1-323.6,74.1z"/>
	<path class="st4" d="M-479.4-149.4c0,0-11.7,1.8-22.8,12.2c0,0-3.2,6.9-14.6,6.4c0,0-7.2-1.6-6.5-8.8c0,0,3.3-6.2,4.9-2.7
		c0,0-4,1.2-2.6,5.1c0,0,4.3,5.6,8-0.9c0,0,3.1-5.7-4.6-7.7c0,0-9.1-0.1-8,8.1c0,0-0.7,8.5,9.2,9.2c0,0,3.6,0.3,4.6-0.5
		c0,0-5.3,5.9-11.9,7.2c0,0-11.2,2.8-14.4-5.8c0,0-3.8,3.3-1.1,8.1c0,0-8-3.2-7.6-12.1c0,0,2.1-4.3,4.2-4.5c0,0,3.1-2.1-1.7-1.1
		c0,0-3.5,3-3,4.6l0,6.9c0,0,1.4,7.3,11.7,10.4c0,0,7.2,1.2,11-1.3c0,0-7.4,7.4-8.8,11.4c0,0-8.2,10.5-10.9,21.1
		c0,0-5.3,18.4-2.5,28.9c0,0,0,14.1,11.4,23c11.4,8.9,18.2,1.9,18.2,1.9s7.1-5.8,2.5-14.6c0,0-3.9-8.8-15.8-2.8c0,0-1.3,8,4.5,5.4
		c0,0,2.7,0.6,1.7-4.7c0,0,6.9-2.2,8.8,4.3c0,0,4.1,13.4-12.5,12.3c0,0-16.1-4.3-18.3-29c0,0-1.7-18.2,7.9-34.2
		c0,0-1.4,9.3,5.3,13.3c0,0,3.6,5.4,12.1,1.8c0,0,14.1-10.3,2.3-17.5c0,0-9.8-0.6-5.6,7.4c0,0,1,3.1,4.5,1.5c0,0,1.5-2.6,1.4,0.8
		c0,0-5.3,12.1-13.9,4c0,0-7-7.5-1.4-19.1c0,0,12.7-18.8,14.5-18.7c0,0,8-9.9,12.3-11.1c0,0-8.3,14.4-7.8,24.2c0,0,0.5,7.7,7.1,6.1
		c6.7-1.6,1.3-11.6,1.3-11.6s-2.4-11,4.8-19.1c0,0,9.8-13,15.6-14.6C-485.7-146-480.3-149.8-479.4-149.4z"/>
	<path class="st5" d="M-381-120.7c0,0-2.5-13.3-18.7-14.2c0,0-16.5-2.5-19.9,15.6c0,0,1.6,12.1,10.3,9.6c0,0,7.2-5.9-1-9.6
		c0,0-6,0.3-0.9-4.9c0,0,10.3-0.9,12.4,3.4c0,0,5.5,6.1,0,15.1c0,0-7.6,12-22.2,3.9c0,0-8.4-4.8-6.8-19.8c0,0,15.6-22.6-2.1-7.8
		c0,0-10.5,12.1-9.6,13.8c0,0-7,11.9-19.5,12.1c0,0-14.1,0.1-14.6-12.5c0,0,0.8-9.2,4.7-9.9c0,0,4.4-4.7,9.8-3.4c0,0,7,2.5,5.3,7.8
		c0,0-8.5-2.9-8.2,7.5c0,0,5.5,8.3,13.5,0c0,0,4.6-2.1,9.9-10.1c0,0,6.6-8,11.1-10.1c0,0,6.8-4.3,12.3-5.7c0,0,15.1-2.8,17.6-1.5
		c0,0,10.6,3.1,12.9,7.2c0,0,4.9,4.1,5.7,7.7L-381-120.7z"/>
	<path class="st6" d="M-378.3-115.6c0,0,3.9,2.8,6.3,2.4c0,0,5,3.2,5.7,6.7c0,0,1.6,4.4,3.3,4.7c0,0-7.4-0.4-9.5-3.9
		C-372.7-105.6-378.4-110.5-378.3-115.6z"/>
	<path class="st7" d="M-291.7-110.6c0,0-2-1.1-3.8,10.8c0,0-1.4,8.2-12.3,14c0,0-9,4.4-9.1,5.3c0,0-2.7,1.8-2.5,3.8
		c0,0-0.9-7.2,2.5-13.1c0,0,5.1-10.7,12-15C-304.9-104.8-296.5-110-291.7-110.6z"/>
	<path class="st8" d="M-200.6-131.7c0,0,1.7,13.5-0.8,17.5c0,0-0.8,5.4-2.1,6.6c0,0-5.1,6.6-0.7,10c0,0,6,4.6,9.7-7.1
		c0,0,1-7.8-1.8-16C-196.3-120.6-198.6-130.5-200.6-131.7z"/>
	<path class="st9" d="M-247.5-30.9c0,0,9.2-3.2,16.9,0c0,0,8.2,2.8,9.2,6.8c0,0-4.2-1.1-9.1,0c0,0-8.1,2-11.8-2.6
		C-242.2-26.8-247.6-31.7-247.5-30.9z"/>
	<path class="st10" d="M-155.5-26.2c0,0-2,0.5,8.3,10.6c0,0,4.6,4.8,5.4,9.7c0,0,0.5,6.9,0,11.5c0,0-4.8,0-12-11.8
		C-153.8-6.2-158.6-20.6-155.5-26.2z"/>
	<path class="st11" d="M-305.2,28.9c0,0,13.5,4.5,17.8,13.8c0,0,3.7,3.8,5.2,15.8c0,0-2.6-3.4-6.8-5.2c0,0-8.9-3.7-12.5-11.1
		c0,0-1.3-2.9-2.2-7.5C-303.6,34.7-304.1,31.2-305.2,28.9z"/>
	<path class="st12" d="M-216.7,50.6c0,0,6.4,3.5,7.5,8.4c0,0,1.5,1.7,1.4,9.4c0,0-4.1-1.8-6.9-6.6c0,0-0.6-2.4-1.4-6.2
		C-216.1,55.7-215.8,53.5-216.7,50.6z"/>
	<path class="st13" d="M-79.8-130.2c0,0,5.5,5.1,11.8,6.8c0,0,9.4,2.8,16.3,0.9c0,0,5.8-1.2,9.1-3.5c0,0-2.5-0.4-8.5-5.1
		c0,0-2.8-2-6.8-1.8c0,0-7.4-0.5-11.8,1.8C-69.7-131.1-75.2-129.4-79.8-130.2z"/>
	<path class="st14" d="M-83.9-116.2c0,0,6.8,5.8,8.2,12.7c0,0,0.9,9.5-0.6,14.2c0,0-4.6-5.8-6.6-7.2c0,0-1.8-4.2-0.9-10.2
		C-83.9-106.6-82.8-114.6-83.9-116.2z"/>
	<path class="st15" d="M-469.8-88.9c0,0,12.5-0.6,19.1,6.8c0,0,6,5.9,6.9,10.7c0,0,2.1-1.4-9.9-2c0,0-4.8-2.1-8.8-6.7
		C-462.5-80.2-467.5-89.5-469.8-88.9z"/>
	<path class="st16" d="M-505.2-78.2c0,0-5.4,6.1-6.5,19.2c0,0,1,10,4.3,15.1c0,0,1.5-7.3,3.4-8.3c0,0,4.3-9.5,2.8-14.4
		C-501.2-66.6-503.3-71.5-505.2-78.2z"/>
	<path class="st17" d="M-365.2-37.4c0,0,1.8,2.4-16.9,7.1c0,0-10.8,4.1-11.8,11.3c0,0-3.6,7.1-5.5,6.9c0,0,4,1.2,10.2-0.9
		c0,0,8.6-2.8,12.9-6.5C-376.4-19.4-363.8-31.7-365.2-37.4z"/>
	<path class="st18" d="M-415.6,18.9c0,0,3.1,3.7,4.7,4.1c0,0,3.2,1,5.1,4.3c0,0,1.3,0.5,3.5,8.1c0,0,0.8,5.5,1.2,8.2
		c0,0,0.2,3.5,2.6,5.1c0,0-4.5-0.3-8.5-5.1c0,0-6.4-8-7.6-11.5C-414.6,32-416.5,21.2-415.6,18.9z"/>
	<path class="st19" d="M-467.8,46.7c0,0,2.8,1.2,3.5,8.3c0,0,2.3,10.1-4.6,11.9c0,0-3.4,2.9-8.6,0.6c0,0-4.1-3.4-1.3-5.2
		c0,0,0.7,0.1,3.5,3.1c0,0,5.4-0.6,4.8-2.9c0,0,2.8-4.8-4.3-7.7c0,0-4.5-0.6-7.1,2.8c0,0-1.4,2.5-0.8,6.7c0,0,1.1,3.7,6,6.6
		c0,0,5.6,1.6,10.3-1.8c0,0,7-2.5,4.4-15.4C-461.8,53.7-466.3,45.1-467.8,46.7z"/>
	<path class="st20" d="M-521.9,40.1c0,0-12-13.7-13.4-23.2c0,0-2.9-14.4,2.3-19.4c0,0,1.7-3.6,8.8-2.6c0,0,6.6,0,5.8,6.3
		c0,0-5.9,7.6-4.2,1.1c0,0-2.5-4.2-5.2,1c0,0-1.1,3.3,3.5,4c0,0,5.4,0.8,7.4-5.9c0,0,0.6-5.8-5.7-8.1c0,0-5.1-0.6-6,0
		c0,0,5.4-3.5,8.3-3.2c0,0,6.2-1.4,9.9,0c0,0,3.4-0.6,6.3,4.2c0,0,3.5,6.2-3.5,5.3c0,0-1.8-0.9-1-3.5c0,0,1.7-1.9-0.9-0.6
		c0,0-0.4,1.6-0.2,2.7c0,0.1,0.1,0.3,0.1,0.4c0.4,1,1.3,1.7,2.3,2.2c0,0,3.2,0.5,4.1-1.4c0,0,2.1-2.2,0.7-4.8c0,0-3.2-4.6-5.3-4.8
		c0,0-4.9-1.9-9.3-1.2c0,0-8.8,1.8-10.9,3.8c0,0-4.8,3.5-0.8,0c0,0,4.4-3.4,6.4-4c0,0,4.1-2.1,7.2-1.8c0,0,7.8-1,10.1,0.3
		c0,0,8.7,2.4,12.4,7.4c0,0,6.2,5.6,6.6,12.2c0,0,0.4,9.8-0.9,11.3c0,0,0.2,0.9-1.5,4.3c0,0,1.1,0.3,2.9-6.1c0,0,0.5-10.3,0-13.3
		c0,0-4.5-10.8-9.5-13.8c0,0-6.7-5.2-13.2-6c0,0-10.3-1.9-18,1.7c0,0-7.5,3-12.5,10.4c0,0-4.3,7.1-2,17.2c0,0,3.9,10.8,7.4,14.5
		C-533.4,26.5-523.5,40.2-521.9,40.1z"/>
	<path class="st21" d="M-511.1,34c0,0-3.8,3.8-1.9,10.5l0.7,1.5c0,0,0.1-2.8,0.8-3.1c0,0,0.5-1.5,1.8-3.6
		C-509.7,39.2-509.7,35.1-511.1,34z"/>
	<path class="st22" d="M-509.8,59.5c0,0,0.3-5.2,3.4-7.3c0,0,1.8-1.2,2.3-1.2c0,0,0.5,2.3,0,3.8C-504.1,54.9-508.7,59-509.8,59.5z"
		/>
	<path class="st23" d="M-393.8,66.9c0,0-9.1,3.1-8.8,11.8c0,0,1.8-0.6,5.5-3.5C-397,75.2-394.6,71.3-393.8,66.9z"/>
	<path class="st24" d="M-484.9,86.7c0,0,2,1.4,7.1-3.7c0,0,2.7-2.4,11.6-0.7c0,0,5.3,1.6,7.3,0c0,0-2.7,4.3-7.3,5.3
		C-466.3,87.7-474.2,92-484.9,86.7z"/>
	<path class="st25" d="M-512.8,130c0,0,1-10.9,12.8-12.9c0,0-0.8,1.1-2.1,5.5C-502.1,122.6-502.4,124.6-512.8,130z"/>
	<path class="st13" d="M-469.3,132.7c0,0-3.7,5.7,2.3,20.9c0,0,3.1,5.3,9.5,10.5c0,0,0.7-2.7,0-13.7c0,0-0.5-3.7-8.2-12
		C-465.6,138.4-469.9,135.3-469.3,132.7z"/>
	<path class="st26" d="M-420.9,146.6c0,0,0.4,2,1.5-4c0,0,2-6.3,8.2-8.5c0,0,5.5-0.8,8.5-4.6c0,0-0.3,5.4-3,9.5c0,0-6.4,6.9-9.2,6.5
		C-414.9,145.5-418.1,147.9-420.9,146.6z"/>
	<path class="st13" d="M-484,188.8c0,0-1.6-6.2,1.4-8.7c0,0,1.6-3.6,7.6-3.9c0,0,4.5,1,5.3,2.9c0,0,2.5,2.7,1.2,6.2
		c0,0-3,5.5-8.4,2.1c0,0-3.1-2.5,0.6-6.4c0,0,2.7-0.6,3.8,0.8c0,0,2.5-0.2-0.5-2.8c0,0-3.9-1.5-5.9,1.2c0,0-3.6,0.8-3.1,7.1l0.8,3.3
		L-484,188.8z"/>
	<path class="st13" d="M-404,160.3c0,0-16,15.2-10.4,43.5c0,0,3.7,9.8,5.2,11.2c0,0-0.6-6.4,4.7-13.9c0,0,6.9-13.4,5.8-21.4
		C-398.7,179.6-404.1,165.4-404,160.3z"/>
	<path class="st27" d="M-453.6,203.1c0,0,0-9.6,4.5-14.2c0,0,1.8-3.9,9-3.5c0,0,3.6,1,3.9,2.2c0,0,2.6,2.5-4.9-1.3
		c0,0-5.8,0.5-7.8,5.1c0,0-2.3,4.5-1.1,7c0,0,2.5-2.8,4-2.6l3-0.1c0,0-0.8,2.5-1.6,5.7c0,0,0.7,6.7,2.5,7.7L-453.6,203.1z"/>
	<path class="st28" d="M-545.9,167.7c0,0,8,1.7,12.2,5.3c0,0,3.3,2.5,3.5,3.2c0,0-7-0.9-7,0.4c0,0-8,0.7-8.7,0.9V167.7z"/>
	<path class="st29" d="M-449.8,231.4c0,0-11.4,0.3-22.8,10.5c0,0-9.4,9.1-8.6,18.1c0,0,0.1,8.3,6.7,13.7c0,0,4.3,6.4,14.5,2.1
		c0,0,4.7-3.7,0.9-6.6c0,0-3.1,3.5-8.1,1.7c0,0-6.2-2.3-4-11.9c0,0,2.9-5.8,11.1-5.4c0,0,5.2-0.3,9.2,6.5c0,0,3.1,3,1.2,10.8
		c0,0-2.3,9.1-13.9,10.8c0,0-11.3,2.3-18.6-8.8c0,0-6.4-9.5-4-18.1c0,0,3.4-11.2,11.8-16.9c0,0,10.8-7.3,16-8c0,0-3.7,1.2,8.7-2.2
		L-449.8,231.4z"/>
	<path class="st30" d="M-315.2,138.1c0,0,8.6,7.7,5,24.6c0,0-2.8,9.5-7.4,15.4c0,0,0.6-6.8-2.5-8.8c0,0-3.7-5.7,0-14.3
		C-320.1,155.1-311.9,142.7-315.2,138.1z"/>
	<path class="st31" d="M-289.4,213.4c0,0-4,4.5-7.5,5.4c0,0-5.1,3.5-4.8,7.2c0,0-0.8,4.8-1.4,6c0,0,5.5-2.3,6.9-4.5
		c0,0,5.2-3.6,5.8-6.6C-290.4,220.9-288.5,215.2-289.4,213.4z"/>
	<path class="st32" d="M-296.1,147c0,0,7.3,7,16.3,5.1c0,0,11-1,13-12c0,0,3.2-13.8-10.3-16.7c0,0-17-1.1-11.9,14.9
		c0,0,3.5,6.8,9.9,3.6c0,0,3-0.9,2.5-4.4c0,0-2.2-4.5-2.2,0.5c0,0-5.3,3.5-6.3-2.9c0,0-0.4-3.5,4.4-4.4c0,0,3.9,0.3,5.1,4.4
		c0,0,1.4,4.2-0.4,6.1c0,0-1.9,3.7-9,2.6c0,0-7.3-3.8-6.8-10.4c0,0,1.8-8.9,6.4-9.3c0,0,3.9-3.6,11.6-1.1c0,0,4,1.3,5.9,3.9
		c0,0,1.8,1.8,1.3-2.8c0,0,1.2-4.9,3.4-5.9c0,0,3.6-1.7,6.2,1.5c0,0,1.9,4.6-1.6,4.4c0,0-3-0.7-1.3-3.1c0,0,3.8,0.4,0.1-2.1
		c0,0-4.5-0.7-4.7,5.2c0,0-0.5,7.7,0.4,11.7c0,0,0.2,6.6-2.3,10.1c0,0-3.9,6.1-9.9,8.1c0,0-9.7,2.1-15-1.2L-296.1,147z"/>
	<path class="st13" d="M-495.2,285.8c0,0,9.3,1.3,13.9,8.6c0,0,1.6,2.9,2.7,6.1c0,0-3.2-1.6-5.9-1.6c0,0-4.9-1.7-6.2-5.8
		C-490.7,293.2-492.9,288.9-495.2,285.8z"/>
	<path class="st33" d="M-197.1,78.1c0,0-0.1,2.3,11.8,5c0,0,9.8,3.3,10.5,9.6c0,0,0.9,3.2,2.3,3.7c0,0-8.7,0.7-13.9-3.5
		C-186.5,93-195.9,85.5-197.1,78.1z"/>
</g>
<rect x="558.1" y="-523.4" class="st34" width="571.1" height="494.8"/>
<image style="overflow:visible;" width="1280" height="1280" xlink:href="C:\Users\Mr Jerry\Desktop\saylani pics\roman.jpg"  transform="matrix(0.3873 0 0 0.3873 22.8438 -524.3771)">
</image>
<g>
	<path id="SVGID_x5F_1_x5F_" class="st33" d="M657.1-302.9l1.3,66.2"/>
	<text>	<textPath  xlink:href="#SVGID_x5F_1_x5F_" startOffset="34.668%">
<tspan  style="fill:#0F0F10; font-family:'MyriadPro-Regular'; font-size:44px;">XI</tspan>	</textPath>
</text>
	<linearGradient id="SVGID_2_" gradientUnits="userSpaceOnUse" x1="605.11" y1="-263.4459" x2="1052.3152" y2="-263.4459">
		<stop  offset="0" style="stop-color:#FFFFFF"/>
		<stop  offset="0" style="stop-color:#76777A"/>
		<stop  offset="1" style="stop-color:#383638"/>
	</linearGradient>
	
		<ellipse style="fill:none;stroke:url(#SVGID_2_);stroke-width:7;stroke-miterlimit:10;" cx="828.7" cy="-263.4" rx="220.1" ry="221.6"/>
	<ellipse class="st36" cx="828.4" cy="-264.2" rx="198.8" ry="200"/>
	<ellipse class="st37" cx="828.9" cy="-263.5" rx="207.8" ry="209.3"/>
	<circle class="st36" cx="828.7" cy="-262.9" r="187.1"/>
	<circle class="st38" cx="828.3" cy="-262.7" r="128.6"/>
	<circle class="st36" cx="828.3" cy="-262.7" r="118.3"/>
	<circle class="st39" cx="828.3" cy="-262.7" r="15.4"/>
	<line class="st36" x1="829.3" y1="-391.3" x2="829.3" y2="-381"/>
	<line class="st36" x1="835" y1="-391.3" x2="835" y2="-381"/>
	<line class="st36" x1="848.8" y1="-389.6" x2="847.3" y2="-379.4"/>
	<line class="st36" x1="854.9" y1="-387.9" x2="853.4" y2="-377.7"/>
	<line class="st36" x1="861.2" y1="-386.2" x2="860" y2="-377.7"/>
	<line class="st36" x1="865.3" y1="-376.3" x2="868" y2="-384.5"/>
	<line class="st36" x1="874.6" y1="-382.3" x2="871.1" y2="-373.6"/>
	<line class="st36" x1="841.8" y1="-387.9" x2="841.8" y2="-384.5"/>
	<line class="st36" x1="828.4" y1="-279.4" x2="828.4" y2="-278.1"/>
	<path class="st36" d="M880.5-379.7c0,0.1-3.7,8.4-3.7,8.4"/>
	<line class="st36" x1="886.7" y1="-376.8" x2="882.4" y2="-368.6"/>
	<line class="st36" x1="892.6" y1="-373.6" x2="887.7" y2="-365.6"/>
	<line class="st36" x1="898.2" y1="-370.2" x2="892.6" y2="-362.1"/>
	<line class="st36" x1="904.1" y1="-366.6" x2="897.8" y2="-358.5"/>
	<line class="st36" x1="909.2" y1="-362.7" x2="902.8" y2="-354.7"/>
	<line class="st36" x1="914.4" y1="-358.3" x2="907.5" y2="-350.7"/>
	<line class="st36" x1="919.1" y1="-353.8" x2="911.9" y2="-346.4"/>
	<line class="st36" x1="923.7" y1="-349" x2="916.1" y2="-342.1"/>
	<line class="st36" x1="928.1" y1="-343.9" x2="920.2" y2="-337.2"/>
	<line class="st36" x1="932.2" y1="-338.5" x2="923.9" y2="-332.4"/>
	<line class="st36" x1="936.1" y1="-333" x2="927.4" y2="-327.4"/>
	<line class="st36" x1="939.5" y1="-327.4" x2="930.6" y2="-322.2"/>
	<line class="st36" x1="942.7" y1="-321.5" x2="933.7" y2="-316.6"/>
	<line class="st36" x1="945.7" y1="-315.4" x2="936.3" y2="-311.1"/>
	<line class="st36" x1="948.3" y1="-309.1" x2="938.7" y2="-305.3"/>
	<line class="st36" x1="950.6" y1="-302.7" x2="940.8" y2="-299.4"/>
	<line class="st36" x1="952.5" y1="-296.3" x2="942.6" y2="-293.5"/>
	<line class="st36" x1="954" y1="-289.9" x2="944" y2="-287.7"/>
	<line class="st36" x1="955.3" y1="-283.3" x2="945.1" y2="-281.5"/>
	<line class="st36" x1="956.2" y1="-276.4" x2="946" y2="-275.4"/>
	<line class="st36" x1="956.7" y1="-269.7" x2="946.4" y2="-269.3"/>
	<line class="st36" x1="956.9" y1="-263.4" x2="946.6" y2="-263.4"/>
	<line class="st36" x1="956.8" y1="-256.7" x2="946.5" y2="-257"/>
	<line class="st36" x1="956.3" y1="-249.8" x2="946" y2="-250.9"/>
	<path class="st36" d="M955.4-243.1c0,0-10.2-1.5-10.1-1.8"/>
	<line class="st36" x1="954.2" y1="-236.4" x2="944.2" y2="-238.8"/>
	<line class="st36" x1="952.7" y1="-229.8" x2="942.8" y2="-232.8"/>
	<line class="st36" x1="950.7" y1="-223.2" x2="941.1" y2="-226.7"/>
	<line class="st36" x1="948.6" y1="-217.1" x2="939" y2="-220.9"/>
	<line class="st36" x1="946" y1="-210.8" x2="936.6" y2="-215"/>
	<line class="st36" x1="940" y1="-198.9" x2="931.2" y2="-204.2"/>
	<line class="st36" x1="936.5" y1="-193.2" x2="928" y2="-198.9"/>
	<line class="st36" x1="932.7" y1="-187.6" x2="924.4" y2="-193.7"/>
	<line class="st36" x1="928.5" y1="-182.1" x2="920.6" y2="-188.7"/>
	<line class="st36" x1="924.4" y1="-177.2" x2="916.6" y2="-184"/>
	<line class="st36" x1="919.7" y1="-172.2" x2="912.4" y2="-179.5"/>
	<line class="st36" x1="914.9" y1="-167.7" x2="908" y2="-175.2"/>
	<line class="st36" x1="909.7" y1="-163.2" x2="903.2" y2="-171.2"/>
	<line class="st36" x1="904.5" y1="-159.1" x2="898.3" y2="-167.3"/>
	<line class="st36" x1="898.8" y1="-155.1" x2="893.2" y2="-163.8"/>
	<line class="st36" x1="893.2" y1="-151.7" x2="887.9" y2="-160.5"/>
	<line class="st36" x1="887.2" y1="-148.4" x2="882.3" y2="-157.4"/>
	<line class="st36" x1="881" y1="-145.4" x2="876.8" y2="-154.8"/>
	<line class="st36" x1="875" y1="-142.8" x2="871.1" y2="-152.4"/>
	<line class="st36" x1="868.5" y1="-140.5" x2="865.3" y2="-150.3"/>
	<line class="st36" x1="862" y1="-138.6" x2="859.4" y2="-148.5"/>
	<line class="st36" x1="855.4" y1="-137" x2="853.3" y2="-147.1"/>
	<line class="st36" x1="848.7" y1="-135.7" x2="847.2" y2="-145.9"/>
	<line class="st36" x1="842.1" y1="-134.8" x2="841" y2="-145.1"/>
	<line class="st36" x1="835.3" y1="-134.3" x2="834.9" y2="-144.4"/>
	<line class="st36" x1="829.1" y1="-134.1" x2="829.1" y2="-144.4"/>
	<line class="st36" x1="821.8" y1="-134.3" x2="822.5" y2="-144.5"/>
	<line class="st36" x1="815" y1="-134.8" x2="815.9" y2="-145"/>
	<line class="st36" x1="808.3" y1="-135.7" x2="810.1" y2="-145.8"/>
	<line class="st36" x1="801.5" y1="-136.9" x2="804" y2="-146.9"/>
	<path class="st36" d="M795-138.5c0.4-2.7,2.9-9.9,2.9-9.9"/>
	<line class="st36" x1="788.6" y1="-140.4" x2="792" y2="-150.1"/>
	<line class="st36" x1="782.3" y1="-142.6" x2="786" y2="-152.2"/>
	<line class="st36" x1="775.9" y1="-145.2" x2="780.4" y2="-154.5"/>
	<line class="st36" x1="769.9" y1="-148.1" x2="774.8" y2="-157.1"/>
	<line class="st36" x1="764.1" y1="-151.3" x2="769.5" y2="-160"/>
	<line class="st36" x1="758.1" y1="-155" x2="764.1" y2="-163.3"/>
	<line class="st36" x1="752.6" y1="-158.7" x2="758.8" y2="-167"/>
	<line class="st36" x1="747.4" y1="-162.7" x2="753.8" y2="-170.8"/>
	<line class="st36" x1="742.2" y1="-167.2" x2="749.2" y2="-174.7"/>
	<line class="st36" x1="737.2" y1="-172" x2="744.6" y2="-179.1"/>
	<line class="st36" x1="732.6" y1="-176.8" x2="740.2" y2="-183.7"/>
	<line class="st36" x1="728.1" y1="-182.1" x2="736.4" y2="-188.2"/>
	<line class="st36" x1="724.2" y1="-187.2" x2="732.3" y2="-193.2"/>
	<line class="st36" x1="720.4" y1="-192.7" x2="728.9" y2="-198.4"/>
	<line class="st36" x1="716.7" y1="-198.7" x2="725.7" y2="-203.7"/>
	<line class="st36" x1="713.6" y1="-204.6" x2="722.8" y2="-209.1"/>
	<line class="st36" x1="710.7" y1="-210.5" x2="720.1" y2="-214.8"/>
	<line class="st36" x1="708.2" y1="-216.7" x2="717.7" y2="-220.5"/>
	<line class="st36" x1="705.9" y1="-223.2" x2="715.7" y2="-226.3"/>
	<line class="st36" x1="704" y1="-229.5" x2="714" y2="-232.2"/>
	<line class="st36" x1="702.4" y1="-236.3" x2="712.5" y2="-238.1"/>
	<line class="st36" x1="701.2" y1="-242.9" x2="711.4" y2="-244.2"/>
	<line class="st36" x1="700.3" y1="-249.7" x2="710.6" y2="-250.8"/>
	<line class="st36" x1="699.8" y1="-256.3" x2="710.1" y2="-256.9"/>
	<line class="st36" x1="699.7" y1="-263.4" x2="710" y2="-263.4"/>
	<line class="st36" x1="699.9" y1="-269.8" x2="710.1" y2="-269.3"/>
	<line class="st36" x1="700.4" y1="-276.5" x2="710.7" y2="-275.5"/>
	<path class="st36" d="M701.4-283.5c0,0,8.5,2,10.1,1.8"/>
	<line class="st36" x1="702.6" y1="-290" x2="712.6" y2="-287.7"/>
	<line class="st36" x1="704.2" y1="-296.7" x2="714.1" y2="-293.8"/>
	<line class="st36" x1="706.2" y1="-303.2" x2="715.9" y2="-299.7"/>
	<line class="st36" x1="708.4" y1="-309.4" x2="717.9" y2="-305.4"/>
	<line class="st36" x1="711.1" y1="-315.7" x2="720.3" y2="-311.2"/>
	<line class="st36" x1="714" y1="-321.8" x2="723" y2="-316.7"/>
	<line class="st36" x1="717.2" y1="-327.6" x2="726" y2="-322.2"/>
	<line class="st36" x1="720.9" y1="-333.5" x2="729.4" y2="-327.6"/>
	<line class="st36" x1="724.7" y1="-339" x2="732.8" y2="-332.6"/>
	<line class="st36" x1="728.8" y1="-344.2" x2="736.7" y2="-337.6"/>
	<line class="st36" x1="733.2" y1="-349.3" x2="740.6" y2="-342.1"/>
	<line class="st36" x1="737.8" y1="-354.1" x2="745" y2="-346.8"/>
	<line class="st36" x1="742.6" y1="-358.6" x2="749.6" y2="-351.1"/>
	<line class="st36" x1="747.7" y1="-363" x2="754.3" y2="-355.1"/>
	<line class="st36" x1="753.1" y1="-367.1" x2="759.3" y2="-358.9"/>
	<line class="st36" x1="758.5" y1="-370.8" x2="764.2" y2="-362.2"/>
	<line class="st36" x1="764.2" y1="-374.3" x2="769.6" y2="-365.5"/>
	<line class="st36" x1="770.3" y1="-377.5" x2="775.1" y2="-368.4"/>
	<line class="st36" x1="776.3" y1="-380.4" x2="780.7" y2="-371.1"/>
	<line class="st36" x1="782.7" y1="-383" x2="786.4" y2="-373.4"/>
	<line class="st36" x1="788.9" y1="-385.2" x2="792.3" y2="-375.5"/>
	<line class="st36" x1="795.4" y1="-387.1" x2="798.2" y2="-377.2"/>
	<line class="st36" x1="801.8" y1="-388.6" x2="804.1" y2="-378.6"/>
	<line class="st36" x1="808.4" y1="-389.8" x2="810.3" y2="-379.7"/>
	<line class="st36" x1="815.1" y1="-390.7" x2="816.3" y2="-380.5"/>
	<line class="st36" x1="821.8" y1="-391.2" x2="822.5" y2="-380.9"/>
	<line class="st36" x1="841.8" y1="-390.6" x2="840.9" y2="-380.4"/>
	<path class="st40" d="M823.5-277.3l1.1-26.8c0,0-13.1-5.1-6.8-17.3c0,0,9.1-13.3,8.6-20.6c0,0,1.1-14.5,2.3-17.5c0,0,2.3,10.1,2,19
		c0,0-2.5,6.9,9.4,21.5c0,0,2.6,11-8.2,14.7l0.4,26.8"/>
	<path class="st40" d="M843.6-261.1l41,23.5c0,0,12.2-12.3,20.8,4.8c0,0,7.7,10.8,10.7,10.8l25,14.6c0,0,18.6,11.5,3.1,4.6
		l-18.1-7.4c0,0-13.4-7.1-18.9-7.7c0,0-6.5-2-14.2,0.2c0,0-11.2-0.4-11.7-13.6l-41.7-21"/>
	<rect x="806.1" y="-435.9" class="st33" width="46.4" height="48.8"/>
	<text transform="matrix(1 0 0 1 806.1152 -404.6703)" style="fill:#0F0F10; font-family:'MyriadPro-Regular'; font-size:44px;">XII</text>
	<path id="SVGID_x5F_3_x5F_" class="st33" d="M874.8-401l69,44.9"/>
	<text style="fill:#0F0F10; font-family:'MyriadPro-Regular'; font-size:44px;">	<textPath  xlink:href="#SVGID_x5F_3_x5F_" startOffset="47.284%">
I	</textPath>
</text>
	<path id="SVGID_x5F_4_x5F_" class="st33" d="M927.1-387.9l59.6,115.5"/>
	<text>	<textPath  xlink:href="#SVGID_x5F_4_x5F_" startOffset="45.342%">
<tspan  style="fill:#0F0F10; font-family:'MyriadPro-Regular'; font-size:44px;">II</tspan>	</textPath>
</text>
	<path id="SVGID_x5F_5_x5F_" class="st33" d="M970.9-294.6l1.8,63.8"/>
	<text>	<textPath  xlink:href="#SVGID_x5F_5_x5F_" startOffset="33.789%">
<tspan  style="fill:#0F0F10; font-family:'MyriadPro-Regular'; font-size:44px;">III</tspan>	</textPath>
</text>
	<path id="SVGID_x5F_6_x5F_" class="st33" d="M971.7-229.3L924.9-141"/>
	<text>	<textPath  xlink:href="#SVGID_x5F_6_x5F_" startOffset="28.271%">
<tspan  style="fill:#0F0F10; font-family:'MyriadPro-Regular'; font-size:44px;">IV</tspan>	</textPath>
</text>
	<path id="SVGID_x5F_7_x5F_" class="st33" d="M934.6-158.4l-47.4,31"/>
	<text style="fill:#0F0F10; font-family:'MyriadPro-Regular'; font-size:44px;">	<textPath  xlink:href="#SVGID_x5F_7_x5F_" startOffset="43.945%">
V	</textPath>
</text>
	<path id="SVGID_x5F_8_x5F_" class="st33" d="M883.3-119.2l-96.1-0.4"/>
	<text>	<textPath  xlink:href="#SVGID_x5F_8_x5F_" startOffset="43.457%">
<tspan  style="fill:#0F0F10; font-family:'MyriadPro-Regular'; font-size:44px;">VI</tspan>	</textPath>
</text>
	<path id="SVGID_x5F_9_x5F_" class="st33" d="M818.8-101.5l-132.3-84.1"/>
	<text>	<textPath  xlink:href="#SVGID_x5F_9_x5F_" startOffset="38.721%">
<tspan  style="fill:#0F0F10; font-family:'MyriadPro-Regular'; font-size:44px;">VII</tspan>	</textPath>
</text>
	<path id="SVGID_x5F_10_x5F_" class="st33" d="M722.6-160l-55.3-93.8"/>
	<text>	<textPath  xlink:href="#SVGID_x5F_10_x5F_" startOffset="22.217%">
<tspan  style="fill:#0F0F10; font-family:'MyriadPro-Regular'; font-size:44px;">VIII</tspan>	</textPath>
</text>
	<path id="SVGID_x5F_11_x5F_" class="st33" d="M695.6-384.5l-24.2,58.9"/>
	<text style="fill:#0F0F10; font-family:'MyriadPro-Regular'; font-size:44px;">	<textPath  xlink:href="#SVGID_x5F_11_x5F_" startOffset="51.367%">
X	</textPath>
</text>
	<path id="SVGID_x5F_12_x5F_" class="st33" d="M758.1-425.2l-51.7,37.7"/>
	<text>	<textPath  xlink:href="#SVGID_x5F_12_x5F_" startOffset="34.774%">
<tspan  style="fill:#0F0F10; font-family:'MyriadPro-Regular'; font-size:44px;">IX</tspan>	</textPath>
</text>
	<polygon class="st40" points="824.4,-464.1 824.4,-450 833,-450 833,-464.2 	"/>
	<polygon class="st40" points="646,-340.1 656.9,-336 659.9,-344.1 648.9,-348.2 	"/>
	<polygon class="st40" points="940.7,-429.3 932.5,-418.4 939.4,-413.2 947.6,-424.2 	"/>
	<polygon class="st40" points="1006.3,-356.8 993.9,-351.2 997.5,-343.4 1009.9,-349 	"/>
	<polygon class="st40" points="1030.2,-266.9 1015.9,-267.3 1015.7,-258.6 1030,-258.3 	"/>
	<polygon class="st40" points="710.2,-425.1 718.2,-413.2 725.4,-418.1 717.3,-430 	"/>
	<polygon class="st40" points="1006.9,-174.8 996.6,-180.3 992.5,-172.7 1002.9,-167.1 	"/>
	<polygon class="st40" points="936.6,-96.3 930.3,-106.1 923,-101.4 929.4,-91.5 	"/>
	<polygon class="st40" points="832.9,-64.2 832.6,-75.9 824,-75.7 824.3,-63.9 	"/>
	<polygon class="st40" points="727.1,-105.3 719.9,-96.1 726.6,-90.7 734.8,-101.1 	"/>
	<polygon class="st41" points="660.5,-181.9 649.9,-176.9 653.6,-169.1 664.2,-174.1 	"/>
	<polygon class="st41" points="641.3,-263.4 629.6,-263.2 629.8,-254.6 641.5,-254.8 	"/>
	<circle class="st42" cx="828.2" cy="-261.1" r="4.9"/>
</g>
<image style="overflow:visible;" width="520" height="306" xlink:href="C:\Users\Mr Jerry\Desktop\saylani pics\jeep.jpg"  transform="matrix(1.0573 0 0 1.0573 44.1155 202.7951)">
</image>
<path class="st43" d="M615.2,324v18.9l18.3,6.9v19.8h-20.1v7.5H662l5.4,1.5v6h-32.7l0.3,18.9h32.4c0,0,8.1-39.3,36.6-39.8
	c0,0,33.6-5.9,48.9,17.6c0,0,7.8,9.9,7.8,22.2H996h14.4c0,0-0.3-41.7,42.9-43c0,0,29.4-1.7,41.1,23.2l34.8-1.5v-12l-6.9-8.4l-21.9,2
	l-0.9-20c0,0,16.8-3.9,20.1-2.4c0,0-2.4-11.1-25.8-13.8l-60.6-8.1c0,0,0.6,4.8-34.2,6.3l-52.5-39.6l7.2-5.1c0,0-4.2-6-30.9-5.7
	l-90,0c0,0-18.9-5.1-22.2,15.6l-3.9,34.2L615.2,324z"/>
<path d="M1093.3,401.5c0,0-5.7-33-40.1-32.9c0,0-34.4,1.8-36.9,35.4h-5.6c0,0-0.2-29.7,21.4-40.5c0,0,33.1-16.1,55.9,8.5
	c0,0,13.5,17.4,11.1,28.8L1093.3,401.5z"/>
<linearGradient id="SVGID_13_" gradientUnits="userSpaceOnUse" x1="711.7393" y1="349.6945" x2="714.4402" y2="392.2353">
	<stop  offset="0" style="stop-color:#FFFFFF"/>
	<stop  offset="0" style="stop-color:#76777A"/>
	<stop  offset="1" style="stop-color:#231F20"/>
</linearGradient>
<ellipse style="fill:url(#SVGID_13_);" cx="715.4" cy="407.1" rx="37.6" ry="38.6"/>
<path d="M754,402.5h6.3c0,0,0-31.6-32-39.7c0,0-36.2-11.1-52.5,17.5c0,0-9,13.9-4.2,18.9l2.2,0.1l4,0.3c0,0,11.7-31.3,38.6-31.2
	C716.4,368.5,749.1,371.9,754,402.5z"/>
<circle class="st45" cx="715.2" cy="407.3" r="24.1"/>
<linearGradient id="SVGID_14_" gradientUnits="userSpaceOnUse" x1="1051.4803" y1="349.4423" x2="1054.1814" y2="391.983">
	<stop  offset="0" style="stop-color:#FFFFFF"/>
	<stop  offset="0" style="stop-color:#76777A"/>
	<stop  offset="1" style="stop-color:#231F20"/>
</linearGradient>
<ellipse style="fill:url(#SVGID_14_);" cx="1055.2" cy="407.5" rx="38.7" ry="38.4"/>
<polygon class="st47" points="634.9,347.6 655,354.6 655.5,373.7 635.5,373.2 "/>
<path class="st48" d="M655.5,355.5v7.3c0,0-19-1.1-19.5-0.7s-0.4,0.3-0.4,0.3l0.4-6.9H655.5z"/>
<rect x="618.4" y="361.7" class="st49" width="4" height="5.2"/>
<polygon class="st48" points="614.5,375.1 662,375.1 667.4,377.1 666.4,381.6 634.3,381.6 634,383.2 604.7,382.7 604.7,378 
	610.3,378.3 "/>
<polygon class="st48" points="648.1,381.8 675.8,381.8 675.8,400.1 659.6,400.1 653.2,400.1 648.1,395.3 "/>
<polygon class="st48" points="616.9,405.8 617.1,401.5 671.2,401.5 671.2,405.8 628.6,404.8 625.1,404.7 624.9,406.5 621.7,406.5 
	"/>
<path class="st48" d="M677.8,398.7"/>
<polygon class="st47" points="1000.9,407.4 761.8,405.8 761.8,401.5 1009.2,401.5 "/>
<linearGradient id="SVGID_15_" gradientUnits="userSpaceOnUse" x1="992.5632" y1="288.0211" x2="965.6161" y2="325.2714">
	<stop  offset="0.4086" style="stop-color:#383838"/>
	<stop  offset="1" style="stop-color:#FFFFFF"/>
</linearGradient>
<polygon style="fill:url(#SVGID_15_);" points="954.7,278.4 1010.8,316.7 1016.5,322.5 1000.4,323.7 946.5,284.2 "/>
<linearGradient id="SVGID_16_" gradientUnits="userSpaceOnUse" x1="672.5814" y1="353.525" x2="794.1265" y2="353.525">
	<stop  offset="0" style="stop-color:#FFFFFF"/>
	<stop  offset="0.5914" style="stop-color:#8EA389"/>
</linearGradient>
<path style="fill:url(#SVGID_16_);" d="M746.5,369c0,0-31.5-35.5-64.8,2.3l-5.4-2.3c0,0,7.2-20.6,22.1-24.7h-49.1v-8.6h121.5v9
	h-42.3c0,0,19.8,8.8,24.8,24.2H746.5z"/>
<linearGradient id="SVGID_17_" gradientUnits="userSpaceOnUse" x1="909.2328" y1="269.5663" x2="905.8715" y2="394.7764">
	<stop  offset="0.2665" style="stop-color:#2B2B2B"/>
	<stop  offset="0.2765" style="stop-color:#363636"/>
	<stop  offset="0.3376" style="stop-color:#727272"/>
	<stop  offset="0.3964" style="stop-color:#A5A5A5"/>
	<stop  offset="0.4513" style="stop-color:#CCCCCC"/>
	<stop  offset="0.5015" style="stop-color:#E8E8E8"/>
	<stop  offset="0.5453" style="stop-color:#F9F9F9"/>
	<stop  offset="0.5779" style="stop-color:#FFFFFF"/>
</linearGradient>
<path style="fill:url(#SVGID_17_);stroke:#000000;stroke-miterlimit:10;" d="M834.8,316l2.5-31.3c0,0-4.1-8.2,20.9-4.9l11.5,0.3
	l46.8,1.3c0,0,18.9-0.7,40.6,16.1l21.3,18.5c0,0,7,4.4,0,11.4h-4.5l0.4-6.2l-129.6-0.4C844.7,320.8,831.5,321.4,834.8,316z"/>
<linearGradient id="SVGID_18_" gradientUnits="userSpaceOnUse" x1="878.8163" y1="255.4342" x2="877.976" y2="362.1569">
	<stop  offset="0.2665" style="stop-color:#000000"/>
	<stop  offset="0.2804" style="stop-color:#2A2A2A"/>
	<stop  offset="0.2974" style="stop-color:#575757"/>
	<stop  offset="0.316" style="stop-color:#7F7F7F"/>
	<stop  offset="0.3361" style="stop-color:#A2A2A2"/>
	<stop  offset="0.3578" style="stop-color:#BFBFBF"/>
	<stop  offset="0.3819" style="stop-color:#D6D6D6"/>
	<stop  offset="0.4092" style="stop-color:#E9E9E9"/>
	<stop  offset="0.4417" style="stop-color:#F5F5F5"/>
	<stop  offset="0.4845" style="stop-color:#FDFDFD"/>
	<stop  offset="0.5779" style="stop-color:#FFFFFF"/>
	<stop  offset="0.7284" style="stop-color:#000000"/>
</linearGradient>
<polyline style="fill:url(#SVGID_18_);stroke:#000000;stroke-width:2;stroke-miterlimit:10;" points="889,318.7 887.3,280.6 
	869.7,280.1 867.6,320.9 889,320.9 "/>
<linearGradient id="SVGID_19_" gradientUnits="userSpaceOnUse" x1="878.6658" y1="255.433" x2="877.8254" y2="362.1557">
	<stop  offset="0.2665" style="stop-color:#000000"/>
	<stop  offset="0.2804" style="stop-color:#2A2A2A"/>
	<stop  offset="0.2974" style="stop-color:#575757"/>
	<stop  offset="0.316" style="stop-color:#7F7F7F"/>
	<stop  offset="0.3361" style="stop-color:#A2A2A2"/>
	<stop  offset="0.3578" style="stop-color:#BFBFBF"/>
	<stop  offset="0.3819" style="stop-color:#D6D6D6"/>
	<stop  offset="0.4092" style="stop-color:#E9E9E9"/>
	<stop  offset="0.4417" style="stop-color:#F5F5F5"/>
	<stop  offset="0.4845" style="stop-color:#FDFDFD"/>
	<stop  offset="0.5779" style="stop-color:#FFFFFF"/>
	<stop  offset="0.7284" style="stop-color:#000000"/>
</linearGradient>
<line style="fill:url(#SVGID_19_);stroke:#000000;stroke-width:2;stroke-miterlimit:10;" x1="878.3" y1="282.6" x2="878.3" y2="320.9"/>
<path class="st36" d="M329.6,306"/>
<path class="st33" d="M222.1,392c0,0,0.6-32-34.7-38.8c0,0-39.2-6.8-46.4,32.6v5.1l-34.9-0.2v-18.4h29.3l-0.8-7.8H86.3v-5.4
	l18.5,0.6l-0.2-19.9l-15.4-6.2l0.4-14.8H265c0,0,5-33.9,6.6-36.4c0,0,1.8-9.3,9.5-9.8h52l44.6,1.8c0,0,25.2,0.6,20.6,4.9l-3.1,1.8
	l48,35.7c0,0,13.8,0.6,15.1,0"/>
</svg>
